<svg width="1287" height="895" viewBox="0 0 1287 895" fill="none" xmlns="http://www.w3.org/2000/svg">
<g clip-path="url(#clip0)">
<path d="M799.84 894.08C806.12 876.43 812.03 858.64 813.49 839.82C814.75 823.47 811.46 808.02 802.65 793.95C799 788.13 794.56 783.02 789.32 778.57C772.77 764.48 753.51 756.02 732.63 750.68C711.44 745.26 689.84 742.43 668.21 739.65C643.34 736.45 618.47 733.18 594.27 726.25C580.05 722.18 566.42 716.77 553.92 708.75C544.82 702.91 536.88 695.83 530.17 687.31C519.95 674.34 516.02 659.52 516.56 643.26C517.05 628.44 521.32 614.67 527.97 601.56C537.78 582.21 551.16 565.77 568.48 552.66C596.41 531.52 627.44 517.32 662.15 511.7C676.48 509.38 690.93 508.3 705.17 512.04C710.36 513.4 715.55 515.57 720.08 518.43C730.16 524.79 733.62 535.24 730.21 546.68C726.9 557.77 719.94 566.38 711.51 573.98C710.43 574.95 709.39 576.01 708.17 576.77C707.43 577.23 706.26 577.55 705.53 577.28C704.98 577.08 704.41 575.76 704.54 575.06C705.18 571.6 705.79 568.1 706.9 564.78C708.89 558.85 711.59 553.14 713.36 547.15C716.61 536.1 713.88 531.42 702.79 528C695.39 525.72 687.76 525.34 680.12 525.8C635.13 528.51 596.71 546.37 564.39 577.27C549.53 591.47 538.97 608.74 533.62 628.84C531.18 638 530.8 647.3 532.19 656.67C533.38 664.7 536.85 671.69 541.68 678.11C550.96 690.44 563.05 699.26 576.76 706C594.2 714.58 612.83 719.52 631.86 722.71C655.77 726.73 679.82 729.97 703.79 733.65C724.04 736.76 743.99 741.09 762.99 748.99C775.15 754.04 786.31 760.83 796.54 769.1C814.07 783.27 822.77 802.07 824.98 824.18C826.65 840.9 823.45 857.12 819.79 873.28C818.39 879.47 816.58 885.58 814.97 891.73C814.77 892.5 814.7 893.31 814.57 894.1C809.66 894.08 804.75 894.08 799.84 894.08Z" fill="#06B6D4"/>
<path d="M558.31 894.08C558.74 889.05 558.64 883.9 559.7 879.01C563.27 862.51 567.52 846.16 571.02 829.65C576.24 804.93 580.19 780.01 581.72 754.75C581.78 753.71 581.4 752.65 581.27 751.59C581.12 750.35 580.73 749.05 580.95 747.86C582.09 741.64 590.61 737.23 596.3 739.89C598.44 740.88 600.48 742.09 602.51 743.29C614.38 750.34 627.53 753.31 640.93 755.61C648.89 756.98 656.78 758.74 664.69 760.41C668.53 761.22 670.67 763.39 671.07 766.57C671.46 769.63 669.82 772.37 666.4 774.17C663.19 775.86 659.94 777.5 656.7 779.13C644.21 785.39 633.47 793.97 623.71 803.86C623.41 804.16 623.17 804.52 622.52 805.31C623.85 805.31 624.7 805.33 625.54 805.31C633.26 805.1 640.98 804.88 648.7 804.69C649.97 804.66 651.25 804.64 652.51 804.8C655.42 805.17 657.69 806.53 658.66 809.45C659.62 812.35 658.74 814.9 656.58 816.88C654.78 818.53 652.75 819.94 650.75 821.34C644.99 825.37 639.67 829.88 635.42 835.53C634.57 836.66 633.84 837.89 632.55 839.85C636.16 839.21 639.09 839.11 641.72 838.16C650.75 834.88 659.69 831.36 668.62 827.8C671.4 826.69 673.56 824.78 674.44 821.72C674.66 820.95 675.15 820.25 675.6 819.57C678.44 815.23 683.45 813.55 687.95 815.39C692.32 817.18 694.83 821.81 693.55 826.83C691.67 834.21 689.8 841.63 687.2 848.77C682.04 862.93 676.38 876.91 670.95 890.97C670.56 891.97 670.38 893.04 670.1 894.08C663.92 894.08 657.74 894.08 651.56 894.08C656.53 877.25 661.49 860.42 666.45 843.61C661.39 845.22 656.21 847.26 650.84 848.47C643.88 850.04 636.79 851.73 629.72 851.96C620.38 852.26 616.23 845.29 619.73 836.6C622.21 830.43 626.18 825.26 630.87 820.62C631.67 819.82 632.7 819.25 633.62 818.57C633.4 818.27 633.18 817.96 632.96 817.66C629.29 818 625.62 818.46 621.94 818.64C617.6 818.85 613.19 819.25 608.91 818.76C601.5 817.91 598.56 811.03 602.61 804.81C603.15 803.98 603.73 803.14 604.41 802.42C615.44 790.82 626.71 779.5 640.66 771.29C641.3 770.91 641.89 770.44 643.13 769.58C627.29 767.4 612.32 764.77 598.48 757.62C598.07 763.03 597.94 768.01 597.29 772.91C593.72 799.7 587.67 825.96 579.85 851.8C575.57 865.94 570.97 879.99 566.52 894.07C563.76 894.08 561.04 894.08 558.31 894.08Z" fill="#06B6D4"/>
<path d="M870.18 894.08C865.24 887.77 863.21 880.4 862.47 872.59C861.17 858.76 862.4 844.99 863.87 831.27C864.77 822.79 866.33 814.39 867.55 805.94C867.68 805.08 867.61 804.15 867.46 803.28C866.85 800 867.62 797.91 870.51 796.44C890.07 786.44 909.65 776.47 929.28 766.6C931.19 765.64 932.46 764.63 933.18 762.53C934.65 758.26 938.03 756.26 941.71 757.06C945.68 757.93 947.77 761.45 947 766.42C946.13 771.98 944.84 777.48 944.14 783.06C943.11 791.34 942.32 799.66 941.69 807.98C941.51 810.37 941.97 812.89 942.6 815.23C943.71 819.33 946.48 821.3 950.68 821.02C957.63 820.54 963.82 817.64 969.84 814.42C970.51 814.06 970.87 812.61 970.89 811.65C971.03 806.02 970.97 800.39 971.11 794.76C971.17 792.41 971.34 790.02 971.86 787.74C972.87 783.3 976.35 780.44 980.47 780.3C984.61 780.16 988.4 782.74 989.44 787.23C990.45 791.63 991.16 796.19 991.24 800.69C991.52 816.3 991.48 831.93 991.55 847.54C991.56 849.81 991.58 852.09 991.4 854.35C990.97 860.03 985.93 862.49 981.21 859.28C977.27 856.6 974.87 852.62 973.87 848.14C972.68 842.85 972.2 837.41 971.45 832.03C971.28 830.8 971.27 829.56 971.16 827.91C969.92 828.47 969.07 828.93 968.17 829.25C962.97 831.12 957.89 833.53 952.54 834.7C942.04 837.01 932.52 831.59 928.39 821.6C925.79 815.32 925.32 808.71 925.97 802.05C926.65 795.1 927.65 788.17 928.51 781.24C928.61 780.46 928.71 779.68 928.88 778.43C926.28 779.83 924.04 780.98 921.84 782.21C909.96 788.85 898.08 795.5 886.23 802.21C885.64 802.54 885.02 803.34 884.95 803.99C883.34 818.15 881.76 832.32 880.29 846.5C879.59 853.27 878.96 860.07 878.61 866.86C878.13 876.19 877.69 885.58 882.71 894.11C878.54 894.08 874.36 894.08 870.18 894.08Z" fill="#06B6D4"/>
<path d="M726.78 894.08C731.77 876.81 736.73 859.54 741.77 842.29C744.03 834.55 746.45 826.86 748.91 818.77C747.59 818.77 746.66 818.78 745.72 818.77C737.66 818.67 729.52 819.21 721.56 818.29C712.4 817.23 708.88 810.89 711.89 802.1C713.41 797.67 715.8 793.53 717.81 789.26C718.69 787.39 719.61 785.55 720.79 783.14C718.71 782.99 717.12 782.66 715.56 782.79C705.92 783.6 696.41 784.85 687.95 790.19C684.54 792.34 681.35 792.14 678.83 789.99C675.94 787.52 675.34 784.29 676.4 780.82C677.93 775.79 681.69 772.61 686.12 770.27C695.71 765.22 706.03 763.5 716.75 764.55C719.78 764.85 722.85 765.72 725.67 766.87C736.16 771.15 739.56 779.82 734.78 790.07C732.94 794.01 730.63 797.73 728.54 801.56C727.99 802.57 727.44 803.59 726.66 805.01C730.49 805.01 733.9 805.2 737.28 804.96C741.71 804.65 746.17 804.25 750.53 803.43C753.59 802.86 756.59 801.73 759.47 800.5C762.82 799.07 766.11 798.55 769.47 800.13C774.96 802.71 776.21 809.69 771.68 814.03C768.86 816.74 767.19 819.89 765.97 823.44C758.2 846.02 750.42 868.6 742.67 891.19C742.35 892.11 742.25 893.11 742.05 894.07C736.96 894.08 731.87 894.08 726.78 894.08Z" fill="#06B6D4"/>
<path d="M0 636.24C1.88 635.16 3.81 634.17 5.63 633C23.98 621.25 42.35 609.54 60.62 597.67C69.27 592.05 76.54 584.81 83.62 577.32C94.46 565.85 100.39 552.25 102.37 536.75C102.59 535.05 102.89 533.32 103.46 531.71C104.65 528.36 106.99 526.21 110.67 525.97C114.32 525.73 117.34 527.35 118.59 530.62C119.89 534.03 120.9 537.81 120.83 541.41C120.73 546.34 119.89 551.36 118.66 556.15C115.82 567.19 110.65 577.15 103.4 585.99C95.07 596.15 85.91 605.46 75.01 612.88C63.53 620.7 51.98 628.42 40.38 636.07C26.97 644.92 13.46 653.64 0 662.41C0 653.69 0 644.96 0 636.24Z" fill="#06B6D4"/>
<path d="M0 855.93C6.65 854.59 13.24 852.73 19.96 852.01C34.62 850.46 46.58 855.94 55.73 867.43C62 875.3 65.31 884.6 68.16 894.09C45.5 894.09 22.84 894.09 0.01 894.09C0 881.37 0 868.65 0 855.93Z" fill="#06B6D4"/>
<path d="M838.01 894.08C828.83 861.45 831.77 828.98 839.72 796.69C841.22 790.61 844.18 784.82 846.99 779.15C848.31 776.49 850.68 774.24 852.92 772.17C854.82 770.42 857.36 769.94 859.74 771.44C862.04 772.88 862.39 775.25 861.95 777.71C861.58 779.76 861.06 781.79 860.47 783.79C854.97 802.56 852.9 821.86 851.78 841.29C850.9 856.53 850.48 871.78 852.77 886.95C853.13 889.36 853.83 891.71 854.38 894.09C848.91 894.08 843.46 894.08 838.01 894.08Z" fill="#06B6D4"/>
<path d="M0 447.63C7.11 445.88 14.15 443.61 21.37 442.56C26.09 441.88 31.21 442.35 35.91 443.39C48.11 446.1 54.29 455.99 52.15 468.29C51.09 474.39 48.62 479.92 45.26 485.03C33.9 502.31 18.36 514.78 0 523.95C0 518.5 0 513.05 0 507.6C0.26 507.57 0.57 507.62 0.78 507.5C14.55 499.7 26.73 490.06 35.32 476.56C37.41 473.27 38.84 469.37 39.78 465.56C40.95 460.81 38.67 457.45 33.85 456.57C30.51 455.96 26.97 455.9 23.58 456.21C15.25 456.97 7.61 460.21 0 463.44C0 458.17 0 452.9 0 447.63Z" fill="#06B6D4"/>
<path d="M585.57 894.08C588.09 879.15 590.6 864.21 593.16 849.28C593.48 847.42 593.92 845.52 594.65 843.79C596.32 839.82 599.99 838.2 604.02 839.61C608.12 841.05 610.89 843.67 611.89 848.17C613.39 854.99 615.07 861.77 616.96 868.49C617.71 871.14 618.89 873.8 620.45 876.07C624.04 881.3 628 886.28 631.78 891.38C632.42 892.24 632.96 893.18 633.54 894.08C617.56 894.08 601.56 894.08 585.57 894.08Z" fill="#06B6D4"/>
<path d="M271.52 894.08C276.72 891.34 281.93 888.59 287.13 885.85C287.37 885.5 287.61 885.14 287.86 884.79C286.99 884.32 286.04 883.95 285.25 883.37C280.94 880.2 276.62 877.04 272.39 873.77C260.66 864.7 260.99 850.68 273.41 842.53C276.95 840.21 281.22 838.66 285.37 837.7C287.61 837.18 290.55 838.22 292.73 839.39C295.05 840.63 295.61 843.29 294.78 845.88C294.05 848.16 292.44 849.12 289.93 849.48C285.07 850.19 281.5 853.21 279.23 857.45C278.69 858.46 279.17 860.59 279.96 861.59C281.45 863.48 283.55 864.88 285.31 866.58C289.8 870.91 294.52 875.06 298.63 879.73C302.44 884.07 302.56 889.12 299.33 894.07C290.06 894.08 280.79 894.08 271.52 894.08Z" fill="#06B6D4"/>
<path d="M200.1 894.08C199.47 891.16 198.7 888.27 198.24 885.33C196.73 875.58 200.41 867.79 208.07 862.02C217.73 854.74 228.56 853.84 239.52 858.32C244.19 860.23 248.34 863.58 252.39 866.71C254.05 867.99 255.07 870.32 255.94 872.35C256.74 874.21 256.23 876.17 254.51 877.48C252.89 878.72 251.36 877.93 249.7 877.21C245.4 875.35 241.12 873.18 236.6 872.13C227.49 870.02 217.62 874.7 212.73 882.7C210.52 886.32 211.08 890.2 211.56 894.08C207.73 894.08 203.91 894.08 200.1 894.08Z" fill="#06B6D4"/>
<path d="M111.77 894.08C119.17 878.5 126.55 862.92 134 847.36C135.49 844.25 137.18 841.23 138.96 838.29C141.22 834.54 144.65 833.26 147.89 834.72C151 836.12 152.46 839.52 151.05 843.55C148.38 851.17 145.5 858.71 142.48 866.2C138.72 875.54 134.74 884.79 130.85 894.07C124.49 894.08 118.13 894.08 111.77 894.08Z" fill="#06B6D4"/>
<path d="M694.61 894.08C696.78 883.97 698.99 873.88 701.09 863.76C702.1 858.87 702.81 853.92 703.84 849.04C704.25 847.12 704.91 845.16 705.87 843.46C707.79 840.07 711.5 838.47 715.13 839.12C718.91 839.8 722 842.64 722.41 846.59C722.67 849.14 722.57 851.99 721.68 854.34C716.63 867.65 711.29 880.85 706.05 894.08C702.25 894.08 698.43 894.08 694.61 894.08Z" fill="#06B6D4"/>
<path d="M0 837.94C12.51 833.93 24.76 828.97 37.92 827.31C40.12 827.03 42.45 827.21 44.65 827.6C46.86 827.99 48.32 829.55 48.68 831.86C49.02 834.06 48.2 835.92 46.32 836.97C43.96 838.29 41.52 839.72 38.93 840.35C26.68 843.32 14.37 846.04 2.08 848.85C1.38 849 0.69 849.2 0 849.38C0 845.57 0 841.75 0 837.94Z" fill="#06B6D4"/>
<path d="M147.76 894.08C152.29 883.62 156.82 873.15 161.35 862.69C161.82 861.61 162.35 860.56 162.82 859.49C163.82 857.24 165.5 856.04 167.98 856.44C170.47 856.84 171.8 858.55 171.9 860.96C171.98 862.83 171.95 864.82 171.43 866.59C169.01 874.74 166.39 882.84 163.86 890.96C163.54 891.98 163.3 893.03 163.02 894.07C157.93 894.08 152.84 894.08 147.76 894.08Z" fill="#06B6D4"/>
<path d="M217 894.08C219.62 886.84 224.65 882.1 232.05 880.08C235.08 879.25 237.92 880.69 238.96 883.1C239.75 884.93 239.67 886.48 237.79 887.84C235.12 889.77 232.65 891.99 230.09 894.08C225.72 894.08 221.36 894.08 217 894.08Z" fill="#06B6D4"/>
<path d="M1115.63 483.92C1110.52 485.67 1106.02 487.32 1101.44 488.74C1095.63 490.53 1089.78 492.2 1083.91 493.77C1080.31 494.73 1077.38 493.38 1076.42 490.62C1075.4 487.68 1076.89 484.68 1080.49 483.37C1093.71 478.54 1106.97 473.82 1120.24 469.13C1121.84 468.56 1123.6 468.26 1125.31 468.19C1130.89 467.98 1134.01 472.79 1131.61 477.8C1125.05 491.45 1122.33 506.21 1119.21 520.85C1119.16 521.09 1119.25 521.36 1119.32 522.05C1129.32 517.74 1140.41 517.08 1150.19 510.99C1147.1 508.84 1144.23 506.96 1141.49 504.9C1139.4 503.33 1137.1 501.83 1135.54 499.8C1131.23 494.19 1134.27 487.01 1141.3 486.21C1153.74 484.78 1165.83 482.1 1177.34 477.05C1178.58 476.51 1179.91 476.16 1181.23 475.82C1186.89 474.4 1190.97 477.39 1190.62 483.28C1190.31 488.42 1189.32 493.54 1188.32 498.61C1185.4 513.48 1182.33 528.32 1179.16 544C1189.5 541.15 1199.29 538.45 1209.14 535.74C1205.9 528.39 1202.84 521.44 1199.78 514.5C1199.34 513.5 1198.83 512.52 1198.51 511.49C1197.13 507.11 1199.3 503.28 1203.83 502.56C1211.18 501.38 1218.58 500.5 1225.95 499.4C1229.09 498.93 1232.19 498.19 1235.31 497.6C1239.45 496.81 1242.35 498.47 1243.24 502.6C1243.74 504.95 1243.91 507.51 1243.57 509.88C1240.87 528.48 1238.01 547.06 1235.18 565.65C1234.67 568.96 1234.02 572.25 1233.45 575.55C1232.89 578.85 1230.69 581.03 1226.73 581.73C1221.01 582.75 1215.21 583.36 1209.52 584.53C1191.73 588.17 1173.95 591.91 1156.21 595.8C1152.79 596.55 1149.54 598.12 1146.24 599.38C1144.72 599.96 1143.29 600.81 1141.76 601.37C1134.69 603.98 1129.04 600.93 1127.89 593.46C1126.37 583.54 1126.12 573.56 1128.39 563.67C1128.63 562.62 1128.86 561.57 1129.22 559.94C1125.5 560.42 1122.1 560.71 1118.79 561.41C1118.16 561.54 1117.65 563.25 1117.45 564.3C1113.89 583.31 1110.48 602.36 1106.79 621.34C1105.89 625.94 1104.28 630.44 1102.58 634.82C1101.76 636.94 1100.22 638.95 1098.55 640.53C1095.65 643.28 1091.57 642.6 1089.96 638.93C1088.95 636.63 1088.37 633.77 1088.7 631.32C1089.72 623.86 1091.28 616.48 1092.61 609.06C1095.72 591.72 1098.94 574.39 1101.87 557.02C1102.81 551.46 1105.71 548.11 1110.84 546.12C1117.87 543.39 1125.11 543.83 1132.37 544.28C1134.72 544.43 1137.07 544.8 1139.37 545.33C1144.89 546.6 1147.24 550.74 1145.77 556.23C1144.83 559.74 1143.84 563.24 1143.13 566.79C1142.06 572.11 1142.47 577.42 1143.55 582.65C1143.89 582.73 1144.1 582.85 1144.24 582.79C1157.64 577.24 1171.99 576.64 1186.09 574.63C1197.6 572.99 1209.06 571.06 1220.52 569.09C1221.41 568.94 1222.61 567.63 1222.78 566.69C1223.8 561.07 1224.57 555.4 1225.4 549.74C1227.27 536.98 1229.13 524.22 1230.99 511.46C1231.11 510.66 1231.16 509.86 1231.31 508.43C1224.61 509.86 1218.23 511.23 1211.64 512.64C1211.97 513.97 1212.09 514.87 1212.4 515.69C1214.83 522.04 1217.24 528.39 1219.79 534.69C1220.94 537.55 1220.1 540.1 1217.06 541.33C1213.78 542.66 1210.43 543.81 1207.1 545.02C1197.46 548.52 1187.81 551.99 1178.18 555.5C1174.7 556.77 1171.18 558.07 1167.85 555.36C1164.41 552.56 1165 548.78 1165.75 545.04C1169.28 527.51 1172.81 509.97 1176.32 492.44C1176.49 491.58 1176.58 490.71 1176.75 489.56C1170.07 491.86 1163.76 494.04 1157.17 496.31C1158.66 497.99 1160.16 499.43 1161.36 501.09C1163.16 503.58 1165.12 506.05 1166.35 508.82C1168.16 512.89 1166.4 516.8 1162.28 518.39C1152.64 522.13 1142.93 525.7 1133.26 529.38C1129.02 530.99 1124.78 532.61 1120.61 534.4C1112.39 537.95 1106.09 533.67 1107.53 524.85C1109.54 512.5 1112.29 500.26 1114.74 487.98C1114.93 486.85 1115.22 485.72 1115.63 483.92Z" fill="#06B6D4"/>
<path d="M732.065 222.748C734.685 221.158 737.485 219.808 739.875 217.928C744.585 214.218 749.075 210.248 753.625 206.338C759.715 201.108 766.095 196.318 773.705 193.468C777.665 191.978 781.655 191.498 785.605 193.478C790.125 195.748 792.275 199.728 793.325 204.438C794.805 211.038 793.635 217.528 791.905 223.828C788.515 236.168 784.615 248.368 781.105 260.678C777.685 272.678 775.445 284.928 774.655 297.378C774.385 301.678 774.675 306.108 775.415 310.358C776.365 315.848 779.655 319.698 785.245 321.248C786.035 321.468 786.755 321.918 787.465 322.638C784.725 324.408 781.815 324.998 778.765 324.488C773.115 323.558 769.265 320.128 766.745 315.178C763.135 308.078 761.665 300.418 761.625 292.518C761.565 278.018 764.405 263.988 768.975 250.288C771.765 241.938 774.925 233.698 777.615 225.318C779.025 220.928 779.815 216.348 780.855 211.838C781.015 211.138 781.025 210.388 781.025 209.668C780.995 205.178 779.985 204.338 776.205 206.628C770.715 209.958 765.445 213.688 760.245 217.458C755.175 221.138 750.515 225.388 745.295 228.818C741.945 231.018 738.045 232.648 734.165 233.698C728.025 235.358 723.265 232.388 721.235 226.318C719.355 220.698 719.885 215.008 721.075 209.358C723.465 197.958 728.815 187.858 735.255 178.328C740.385 170.728 746.205 163.588 751.225 155.918C758.515 144.798 760.135 132.338 758.495 119.358C758.095 116.208 756.845 113.688 753.725 111.978C749.885 109.878 748.635 106.088 749.955 102.748C751.295 99.3378 754.905 97.7078 759.305 98.5378C759.755 98.6178 760.205 98.6978 760.635 98.8478C786.695 108.008 809.355 121.598 823.035 146.828C827.515 155.098 830.745 163.858 833.115 172.948C833.275 173.548 833.475 174.138 833.945 175.698C834.615 174.588 834.915 173.948 835.345 173.418C846.285 160.168 859.305 149.658 875.285 143.038C900.285 132.678 925.275 122.298 950.275 111.948C959.045 108.318 967.695 104.498 974.285 97.3478C976.305 95.1578 978.175 92.7678 979.715 90.2278C981.635 87.0578 981.015 84.5478 977.625 83.0578C974.705 81.7678 971.395 80.7478 968.255 80.7378C959.775 80.7178 951.425 81.7978 943.675 85.7678C942.575 86.3378 940.495 86.4978 939.735 85.8378C938.925 85.1378 938.545 82.9778 939.025 81.9378C939.845 80.1378 941.165 78.0678 942.825 77.2378C954.105 71.6578 965.875 68.9778 978.355 72.7678C980.315 73.3678 982.215 74.4178 983.905 75.5978C990.285 80.0478 992.425 86.9778 988.585 93.7278C985.805 98.6178 982.035 103.078 978.105 107.158C972.435 113.058 965.275 116.988 957.805 120.188C938.105 128.628 918.325 136.878 898.605 145.278C890.755 148.628 882.865 151.918 875.215 155.708C858.935 163.768 846.015 175.608 836.845 191.348C835.415 193.808 834.715 196.708 833.705 199.408C833.045 201.188 832.655 203.108 831.745 204.738C830.205 207.508 827.235 208.698 824.315 208.068C821.395 207.448 819.135 205.158 818.845 202.028C818.665 200.068 818.845 198.028 819.165 196.078C820.285 189.318 819.835 182.738 817.725 176.178C812.255 159.118 803.405 144.218 789.785 132.408C786.395 129.468 782.595 127.008 778.885 124.258C773.545 143.718 762.045 159.068 750.855 174.578C742.625 185.988 735.245 197.838 732.035 211.748C731.255 215.108 731.215 218.638 730.845 222.088C731.255 222.348 731.665 222.548 732.065 222.748Z" fill="#06B6D4"/>
<path d="M348.73 559.67C355.84 557.09 362.99 555.05 368.91 550.57C370.92 549.05 372.44 546.4 373.31 543.95C374.88 539.51 374.48 534.85 373.41 530.41C372.15 530.25 371.02 530.29 370.05 529.94C367.65 529.07 365.99 527.38 365.96 524.72C365.93 522.15 367.53 520.56 369.82 519.64C374.67 517.69 379.87 519.98 382.31 525.38C385.18 531.72 385.36 538.4 384.22 545.15C382.9 552.99 378.8 559.2 371.77 562.74C363.77 566.77 355.51 570.38 347.1 573.45C334.65 578 321.83 581.53 309.44 586.22C300.3 589.68 291.44 593.99 282.74 598.47C274.79 602.56 268.4 608.69 263.59 616.28C257.42 626.01 260.49 632.82 271.87 634.8C277.21 635.73 282.08 634.76 285.71 630.45C286.46 629.56 286.77 627.77 286.46 626.61C285.45 622.8 285.92 620.16 288.39 618.56C290.84 616.97 294.32 617.4 296.98 619.63C301.11 623.1 302.02 628.67 298.85 633.67C292.18 644.19 282.59 649.33 270.08 648.01C266.17 647.6 262.17 646.51 258.59 644.89C247.26 639.76 242.46 627.4 247.14 615.9C251.42 605.37 259.1 597.53 268.11 590.99C280.51 581.99 294.39 575.92 308.96 571.41C317.72 568.7 326.54 566.19 335.33 563.58C336.35 563.28 337.36 562.93 338.33 562.61C334.1 551.44 334.86 539.7 332.81 528.01C331.29 528.87 330.03 529.52 328.83 530.26C324.82 532.75 320.93 535.45 316.81 537.74C308.93 542.13 300.54 543.23 291.78 540.93C279.41 537.67 275.33 526.9 282.46 516.26C286.7 509.93 292.57 505.37 299.03 501.53C309.46 495.33 320.92 491.82 332.64 489.13C346.21 486.01 359.93 483.86 373.85 483.17C384.15 482.66 394.36 483.46 404.45 485.66C405.23 485.83 406.01 485.95 407.08 486.14C407.29 481.16 407.46 476.38 407.71 471.6C407.85 468.79 407.91 465.96 408.38 463.2C409.11 458.98 412.26 456.36 416.04 456.41C419.89 456.47 422.96 459.37 423.64 463.65C423.83 464.81 424.02 466 423.99 467.17C423.57 485.5 423.22 503.84 422.53 522.16C422.43 524.77 420.97 527.54 419.51 529.84C418.03 532.18 415.41 533.14 412.56 532.52C409.69 531.9 407.97 529.95 407.33 527.18C406.88 525.25 406.65 523.23 406.62 521.25C406.55 514.62 406.53 507.99 406.7 501.36C406.76 499.14 406.1 498.48 403.89 498.25C384.27 496.16 365.05 498.69 346.12 503.6C336.56 506.08 327.15 509.24 317.87 512.61C310.76 515.19 304.4 519.33 298.62 524.29C297.68 525.1 296.54 525.67 295.73 526.66C300.25 529.04 304.37 529.09 308.31 527.33C311.77 525.78 315 523.71 318.34 521.88C322.4 519.67 326.31 517.1 330.57 515.36C337.45 512.54 342.65 515.23 343.95 522.56C345.23 529.78 345.59 537.16 346.38 544.46C346.83 548.6 347.3 552.75 347.83 556.88C347.93 557.75 348.36 558.57 348.73 559.67Z" fill="#06B6D4"/>
<path d="M1081.83 537.7C1081.38 544.29 1080.76 551.54 1080.43 558.79C1080.22 563.41 1080.27 568.06 1080.53 572.67C1080.94 579.86 1078.7 583.96 1071.66 585.52C1064.16 587.18 1056.45 588.02 1048.79 588.87C1021.12 591.94 993.24 591.03 965.51 592.79C940.95 594.35 916.46 596.85 891.93 598.96C885.69 599.5 879.46 600.29 873.21 600.68C869.79 600.89 866.28 600.83 862.91 600.28C855.05 598.98 851.9 592.94 855.34 585.79C858.65 578.92 862.34 572.24 865.81 565.45C867.21 562.7 868.67 559.95 869.73 557.06C870.52 554.91 871.05 552.54 871.1 550.26C871.24 544.03 873.51 540.14 879.6 539C891.9 536.7 904.27 534.46 916.71 533.24C939.4 531 962.21 529.97 984.87 527.58C1003.1 525.66 1021.19 522.44 1039.36 519.87C1046.73 518.83 1054.13 517.94 1061.53 517.09C1075.7 515.46 1081.79 520.89 1081.84 535.13C1081.83 535.77 1081.83 536.4 1081.83 537.7ZM1066.06 571.45C1065.37 559.41 1064.62 547.91 1064.1 536.4C1063.99 533.85 1063.24 532.83 1060.66 532.92C1052.04 533.22 1043.38 532.99 1034.8 533.71C1005.84 536.14 976.9 538.76 947.98 541.56C928.28 543.47 908.62 545.83 888.93 547.93C887.05 548.13 886.17 548.63 885.85 550.77C885.4 553.79 884.57 556.85 883.34 559.64C880.32 566.54 876.98 573.29 873.78 580.11C873.33 581.07 872.89 582.03 872.29 583.35C873.9 583.23 875.06 583.14 876.22 583.05C889.25 582.03 902.28 580.83 915.32 580.04C940.14 578.52 965.05 579.87 989.88 577.45C1009.48 575.54 1029.19 574.79 1048.84 573.39C1054.62 572.98 1060.36 572.11 1066.06 571.45Z" fill="#06B6D4"/>
<path d="M911.42 278.78C913.73 277.59 915.94 276.86 917.63 275.5C920.93 272.83 924.06 269.92 927.04 266.89C930.29 263.6 933.04 259.77 936.5 256.74C939.02 254.54 942.2 252.9 945.35 251.68C948.04 250.64 950.75 251.72 952.73 253.95C954.65 256.12 955.34 258.92 953.94 261.31C951 266.37 950.65 272.03 949.59 277.49C944.59 303.33 942.11 329.43 941.65 355.74C941.41 369.35 943.96 382.28 950.59 394.3C952.38 397.55 953.78 401 953.52 405.47C951.95 404.93 950.53 404.7 949.41 403.99C947.82 402.98 946.27 401.77 945.02 400.36C934.87 388.87 928.55 375.72 927.29 360.23C925.94 343.64 927.45 327.19 929.32 310.76C930.45 300.76 932.12 290.82 933.61 280.43C932.76 281.16 932.06 281.75 931.38 282.36C926.52 286.71 921.17 290.26 914.81 292.02C907.31 294.09 901.69 291.49 898.63 284.33C897.03 280.58 895.94 276.62 894.55 272.78C893.3 269.31 892.27 268.86 889.18 270.85C886.98 272.26 885.03 274.07 883.02 275.76C878.36 279.67 873.87 283.79 869.04 287.48C866.4 289.49 863.35 291.12 860.26 292.34C850.55 296.19 841.42 291.68 838.77 281.58C837.65 277.31 837.64 272.77 836.84 268.4C836.13 264.49 835.29 260.57 834.01 256.82C833.03 253.94 832.13 253.93 829.54 255.68C824.6 259.02 821.86 263.78 820.6 269.51C818.89 277.29 819.35 285.07 820.88 292.78C821.99 298.36 823.04 303.95 825.88 309.1C828.37 313.63 825.21 318.67 819.81 319.49C815.37 320.16 811.49 318.64 808.97 315.13C805.98 310.96 802.97 306.58 801.17 301.83C796.1 288.47 795.55 274.67 799.38 260.87C802.62 249.2 809.41 240.15 820.46 234.76C831.96 229.15 842.93 232.46 849.67 243.32C854.39 250.92 855.44 259.47 856.1 268.12C856.26 270.26 856.41 272.39 856.62 275.25C858.85 273.58 860.7 272.45 862.25 271C865.83 267.65 869.04 263.88 872.81 260.77C876.41 257.8 880.22 254.73 884.47 252.98C894.71 248.75 904.99 253.92 908.28 264.48C909.33 267.84 909.77 271.39 910.5 274.86C910.73 275.98 911.02 277.1 911.42 278.78Z" fill="#06B6D4"/>
<path d="M794.64 444.48C793.79 446.83 793.14 449.11 792.17 451.25C787.39 461.76 777.21 467.18 767.24 464.58C761.66 463.12 757.64 459.57 754.6 454.83C750.56 448.54 748.35 441.56 747 434.26C746.87 433.57 746.72 432.89 746.5 431.84C745.44 432.49 744.64 433.02 743.8 433.48C738.54 436.33 733.48 439.71 727.96 441.9C706.46 450.42 686.22 438.93 682.09 416.17C680.25 406.04 681.54 396.28 685.59 386.85C689.67 377.36 695.57 369.15 703.08 362.1C713.18 352.62 724.31 344.46 735.91 336.92C739.28 334.73 742.17 334.69 744.51 336.54C746.67 338.25 747.56 341.88 746.6 345.05C745.72 347.92 743.35 348.86 740.91 347.1C739.78 346.28 739.02 346.08 737.83 346.89C715.71 361.84 700.74 381.41 697.72 408.73C697.53 410.44 697.54 412.17 697.49 413.9C697.06 429.57 712.31 436.13 722.65 432.46C726.36 431.14 729.97 429.23 733.22 427C737.02 424.39 740.58 421.34 743.83 418.07C746.07 415.82 747.61 412.87 749.42 410.2C749.98 409.38 750.31 408.4 750.88 407.59C753.33 404.08 757.5 402.96 760.92 404.85C764.23 406.67 765.67 410.74 763.95 414.56C759.35 424.74 760.88 434.76 764.49 444.73C765.19 446.65 766.31 448.53 767.63 450.09C771.04 454.13 776.71 454 779.38 449.46C781.01 446.69 781.89 443.22 782.18 439.98C782.62 435.12 782.16 430.18 782.26 425.28C782.33 421.77 784.38 419.12 787.31 418.26C790.32 417.38 793.41 418.45 795.5 421.19C796.16 422.05 796.67 423.02 797.22 423.96C798.27 425.77 799.04 427.8 800.37 429.36C803.71 433.27 806.93 437.44 810.88 440.65C817.12 445.73 823.99 444.98 829.82 439.46C842.23 427.7 845.74 411.02 839.05 395.29C827.82 368.91 804.05 356.92 779.94 358.88C767.32 359.9 759.09 367.56 753.77 378.52C751.45 383.29 752.7 386.66 757.09 389.79C757.24 389.9 757.4 389.98 757.54 390.1C759.1 391.39 761.44 392.39 760.51 394.99C759.65 397.38 757.36 397.83 755.12 397.91C750.55 398.08 746.99 396.2 744.61 392.31C741.22 386.78 740.42 380.79 742.82 374.8C747.51 363.1 754.67 353.33 766.38 347.72C772.68 344.7 779.53 344.18 786.38 344.74C809.79 346.65 827.93 357.47 840.37 377.44C846.45 387.2 851.58 397.5 852.82 409.13C854.75 427.27 847.01 441.19 832.48 451.27C822.81 457.98 812.54 456.99 802.79 450.75C799.98 448.96 797.48 446.69 794.64 444.48Z" fill="#06B6D4"/>
<path d="M480.35 711.59C479.67 713.35 479.27 714.26 478.97 715.2C472.96 733.77 459.82 743.95 441.01 747.41C430.68 749.31 420.37 749 410.17 746.52C390.43 741.71 379.85 726.48 382.08 706.29C384.35 685.76 396.95 670.46 415.75 665.42C420.73 664.09 425.75 663.63 430.85 664.72C444.65 667.65 452.59 680.75 448.55 694.35C445.94 703.12 440.49 709.81 432.17 713.74C429.74 714.88 426.76 715.32 424.05 715.26C420.55 715.19 417.76 712.46 417.07 709.32C416.28 705.74 417.47 702.8 420.41 700.73C423.82 698.33 427.68 697.36 431.79 698.45C433.31 698.86 434.31 698.59 434.93 697.3C435.95 695.2 437.25 693.1 437.65 690.86C438.81 684.24 434.35 679.3 427.74 680.34C409.23 683.25 398.51 697.23 399.42 714.84C399.76 721.34 403.28 726.47 408.76 730.1C421.7 738.68 442.3 738.85 455.06 730.07C458.1 727.98 460.79 724.94 462.7 721.77C466.92 714.8 468.48 706.91 468.61 698.81C468.64 697.1 467.95 695.25 467.17 693.68C465.22 689.79 462.82 686.11 460.96 682.17C457.66 675.16 459.64 668.03 465.51 664.77C471.52 661.43 479.04 663.4 482.77 670.31C496.35 695.5 514.79 717.5 529.4 742.02C534.95 751.34 540.33 760.68 543.85 770.96C544.72 773.52 545.48 776.2 545.69 778.88C546.08 783.68 541.75 786.43 537.7 783.85C535.25 782.29 533.11 779.99 531.33 777.65C521.12 764.2 511.18 750.53 500.9 737.13C494.71 729.06 488.07 721.35 481.63 713.47C481.29 713.05 481.02 712.58 480.35 711.59Z" fill="#06B6D4"/>
<path d="M778.35 621.14C782.77 621.14 786.66 621.23 790.55 621.06C791.28 621.03 792.45 620 792.58 619.29C794.56 608.3 796.46 597.3 798.23 586.27C799.05 581.16 801.28 578.15 804.94 577.88C808.63 577.61 811.61 580.44 812.64 585.63C814 592.44 813.1 599.23 811.7 605.91C810.48 611.68 808.96 617.39 807.42 623.09C806.93 624.9 806.13 626.71 805.1 628.28C802.93 631.6 799.39 632.35 795.76 630.78C794.5 630.23 792.98 629.97 791.6 630.04C770.94 631 750.55 633.69 730.57 639.31C727.09 640.29 723.15 640.58 719.59 640.06C713.52 639.18 711.81 633.67 715.68 628.85C718.18 625.73 721.55 623.77 725.35 623.14C733.48 621.79 741.67 620.71 749.87 619.87C753.98 619.45 758.18 619.8 762.36 619.8C762.75 612.88 763.12 606.21 763.5 599.32C762.52 599.32 761.46 599.21 760.43 599.34C743.02 601.41 725.61 603.47 708.22 605.66C706.63 605.86 704.93 606.64 703.66 607.63C697.53 612.39 690.91 616 683.16 617.24C670.01 619.35 662.18 614.01 659.35 601.03C659.24 600.51 659.13 599.98 658.95 599.13C657.57 599.43 656.28 599.68 655.01 599.98C646.33 602.04 637.63 603.98 628.61 602.55C628.07 602.46 627.53 602.42 626.99 602.32C611.73 599.45 605.51 586.48 612.8 572.74C615.63 567.4 619.88 563.58 625.29 561.01C631.59 558.02 638.26 556.15 645.2 555.75C648.08 555.58 651.21 556.22 653.9 557.3C655.72 558.03 657.44 559.93 658.39 561.73C660.02 564.84 657.88 567.76 654.42 567.44C646.55 566.71 639.67 569.37 633.55 573.87C631.18 575.61 629.29 578.31 627.87 580.94C626.3 583.85 627.15 585.53 630.32 586.6C633.4 587.64 636.61 588.78 639.8 588.89C645.85 589.11 651.92 588.73 657.97 588.34C659.08 588.27 660.39 587.19 661.12 586.21C662.88 583.87 664.9 582.05 667.83 581.42C670.93 580.76 674.04 581.95 675.76 584.44C677.51 586.98 677.58 590.2 675.53 592.84C672.9 596.23 673.05 599.9 673.95 603.72C674.59 606.41 676.5 608.03 679.11 607.45C682.23 606.76 685.59 605.85 688.08 604.01C691.45 601.52 694.28 598.2 697 594.96C698.92 592.67 700.84 591.1 703.98 590.89C717.2 590 730.42 589.06 743.62 587.93C750.04 587.38 756.41 586.24 762.83 585.69C765.3 585.48 765.95 584.5 766.27 582.26C767.3 575.16 768.53 568.09 769.76 561.02C769.99 559.69 770.42 558.36 771 557.15C772.65 553.68 775.94 551.76 779.56 552C783.27 552.25 786.53 554.69 787.45 558.47C788.04 560.9 788.23 563.51 788.13 566.02C787.41 583.81 784.1 601.18 779.18 618.26C778.97 618.93 778.78 619.61 778.35 621.14Z" fill="#06B6D4"/>
<path d="M378.87 824.92C357.26 824.09 335.66 823.34 314.06 822.38C308.82 822.15 303.48 821.71 298.43 820.41C294.59 819.43 290.84 817.36 287.6 815.02C282.85 811.58 281.91 806.99 283.9 801.43C285.96 795.68 290.07 791.57 295.56 789.5C302.66 786.83 309.98 784.47 317.4 782.99C347.17 777.06 377.28 776.09 407.48 778.29C426.32 779.66 445.11 781.59 463.92 783.35C474.76 784.36 485.6 785.41 496.41 786.67C499.06 786.98 501.78 787.84 504.15 789.07C509.76 791.98 512.26 796.99 512.25 803.18C512.23 809.14 508.85 813 503.66 815.34C496.06 818.77 487.99 820.43 479.78 821.66C446.26 826.7 412.57 826.18 378.87 824.92ZM496.38 803.36C496.42 802.97 496.46 802.58 496.51 802.19C494.74 801.22 493.05 800.02 491.17 799.33C482.69 796.25 474.08 794.43 464.9 794.22C445.65 793.79 426.43 792.34 407.19 791.53C377.8 790.28 348.49 791.19 319.44 796.08C312.79 797.2 306.29 799.41 299.85 801.5C297.91 802.13 296.4 804.04 294.69 805.37C294.79 805.7 294.9 806.04 295 806.37C296.83 807.07 298.6 808.04 300.49 808.41C303.33 808.98 306.24 809.35 309.13 809.43C327.56 809.93 346.02 809.96 364.43 810.83C403.18 812.67 441.8 811.7 480.28 806.66C485.69 805.97 491.01 804.49 496.38 803.36Z" fill="#06B6D4"/>
<path d="M46.98 771.74C50.07 762.84 54.91 755.25 60.32 747.9C69.13 735.94 81.24 729.33 95.25 725.79C97.88 725.13 100.84 725.4 103.59 725.71C105.12 725.89 106.54 727.04 108.78 728.14C105.11 730.37 102.39 732.33 99.42 733.77C88.38 739.13 79.68 747 72.27 756.77C66.09 764.91 59.79 772.82 56.73 782.78C55.97 785.26 54.04 785.89 51.42 786.01C43.49 786.36 38.92 781.72 34.91 775.85C26.14 762.99 24.03 749 27.49 733.97C30.92 719.07 38.51 706.39 48.41 695C58.33 683.58 69.54 673.48 81.27 664C99.21 649.5 117.37 635.28 135.37 620.85C150.41 608.8 163.8 595.19 174.25 578.87C176.16 575.89 177.94 572.93 177.58 569.04C177.48 567.92 178.88 566.01 180 565.61C181.27 565.16 183.74 565.48 184.39 566.39C185.89 568.5 187.44 571.17 187.46 573.62C187.49 577.43 186.84 581.46 185.48 585.02C180.73 597.44 173.79 608.43 164.2 617.9C149.81 632.1 133.79 644.35 118.32 657.26C104.94 668.44 91.32 679.33 78.11 690.71C67.65 699.72 59.03 710.39 52.19 722.43C44.83 735.39 42.41 749.26 44.69 763.96C44.95 765.66 45.45 767.32 45.91 768.98C46.2 769.92 46.63 770.82 46.98 771.74Z" fill="#06B6D4"/>
<path d="M1035.6 775.7C1033.14 776.05 1031.38 776.22 1029.66 776.57C1026.19 777.28 1022.76 778.15 1019.28 778.81C1017.78 779.09 1016.19 779.18 1014.68 779.04C1008.03 778.41 1004.2 772.54 1006.52 766.28C1007.35 764.03 1008.68 761.83 1010.26 760.03C1013.61 756.21 1017.23 752.63 1020.83 749.04C1022.03 747.85 1023.51 746.94 1024.86 745.9C1024.63 745.56 1024.4 745.22 1024.18 744.88C1021.81 744.49 1019.35 744.38 1017.09 743.65C1013.15 742.38 1009.03 741.23 1005.51 739.13C998.61 735.01 997.32 727.42 1001.82 720.74C1002.33 719.99 1002.88 719.26 1003.49 718.59C1009.62 711.97 1017.4 708.16 1025.95 705.91C1030.47 704.72 1034.09 708.2 1033.4 712.59C1032.91 715.71 1030.82 717.09 1027.77 716.36C1027.23 716.23 1026.35 716.11 1026.1 716.4C1022.47 720.64 1018.92 724.95 1014.88 729.79C1017.56 730.97 1019.39 731.91 1021.31 732.59C1023.79 733.47 1026.41 733.96 1028.85 734.92C1034.93 737.31 1037.03 742.03 1034.49 748.07C1033.31 750.88 1031.49 753.44 1029.81 756.02C1027.93 758.9 1025.89 761.68 1023.57 765C1024.99 765.07 1025.91 765.05 1026.83 765.17C1029.97 765.56 1033.21 765.62 1036.2 766.51C1041.43 768.07 1043.92 772.49 1042.61 777.78C1041.77 781.19 1040.22 784.42 1039.01 787.73C1037.79 791.09 1036.6 794.46 1035.39 797.83C1035.59 797.98 1035.79 798.14 1035.99 798.29C1037.1 797.76 1038.21 797.23 1039.31 796.69C1044.64 794.07 1050.1 791.89 1056.08 791.33C1057.25 791.22 1058.44 791.14 1059.62 791.18C1067.17 791.42 1070.72 795.56 1069.76 803.05C1069.51 804.99 1069.01 806.9 1068.55 809.21C1070.93 808.31 1072.94 807.57 1074.95 806.8C1080.07 804.85 1084.65 805.82 1088.48 809.66C1091.36 812.55 1093.99 815.69 1096.74 818.72C1099.53 821.8 1101.51 822.27 1105.14 820.26C1107.11 819.17 1109.01 817.84 1110.65 816.31C1118.76 808.71 1125.39 799.94 1129.86 789.77C1135.27 777.47 1135.02 765.18 1126.17 754.63C1109.89 735.21 1081.63 740.71 1070.47 760.06C1066.47 766.99 1069 776.55 1076.05 781.84C1078.21 783.46 1080.73 784.59 1083.04 786.02C1083.59 786.36 1083.96 786.98 1084.42 787.47C1083.76 787.76 1083.11 788.28 1082.44 788.31C1063.57 789.15 1050.31 770.33 1057.45 752.64C1062.46 740.25 1072.48 733.77 1085.07 731.17C1113.64 725.26 1137.83 742.31 1142.18 771.5C1145.45 793.38 1138.93 811.64 1120.37 824.5C1115.69 827.75 1110.14 830.04 1104.68 831.82C1097.06 834.31 1090.06 832.21 1084.48 826.45C1082.11 824 1080.13 821.1 1078.31 818.2C1077.26 816.54 1076.2 816.09 1074.54 816.79C1073.37 817.28 1072.25 817.88 1071.12 818.47C1069.75 819.18 1068.45 820.04 1067.03 820.63C1060.42 823.4 1054.23 819.7 1053.8 812.55C1053.63 809.71 1054.13 806.82 1054.34 803.74C1051.08 804.86 1047.8 806.12 1044.45 807.11C1040.98 808.13 1037.47 809.26 1033.9 809.68C1027.57 810.43 1023.64 806.29 1024.95 800.04C1025.71 796.38 1027.45 792.88 1029.05 789.45C1030.47 786.42 1032.37 783.62 1033.91 780.63C1034.61 779.3 1034.9 777.8 1035.6 775.7Z" fill="#06B6D4"/>
<path d="M367.14 673.85C367.14 675.24 367.13 676.3 367.14 677.36C367.46 700.45 367.03 723.51 364.8 746.51C364.43 750.3 364.06 754.15 363.06 757.79C362.34 760.41 360.99 763.12 359.2 765.14C355.47 769.32 349.14 768.12 347.31 762.83C346.34 760.03 346.04 756.7 346.47 753.77C351.54 719.5 352.55 685.03 352.1 650.47C352.07 648.29 351.72 646.12 351.71 643.95C351.68 639.56 354.34 636.32 358.21 635.8C361.96 635.3 365.36 637.62 366.47 641.78C367.36 645.11 367.71 648.58 368.64 651.89C369.44 654.75 370.56 657.56 371.84 660.24C373.03 662.74 375.3 663.58 378.02 663.13C382.82 662.33 385.85 659.55 387.11 654.87C388.82 648.54 387.75 642.24 386.83 635.95C386.31 632.36 385.52 628.77 385.43 625.16C385.25 617.23 389.7 612.36 397.62 612.14C417.86 611.56 437.49 607.82 456.63 601.36C463.59 599.01 470.04 595.77 475.25 590.43C483.25 582.25 483.09 572.85 474.5 565.25C464.48 556.38 452.94 554.68 440.38 558.77C439.55 559.04 438.78 559.53 437.7 560.06C438.33 561.11 438.86 561.92 439.31 562.77C440.79 565.58 439.94 567.22 436.77 567.76C428.95 569.1 422.69 561.3 425.48 553.67C426.69 550.37 428.95 547.87 431.95 546.18C457.87 531.61 486.11 548.43 491.67 568.5C494.08 577.19 492.72 585.26 487.36 592.54C481.87 600 474.5 605.06 466.03 608.52C450.5 614.86 434.37 619.13 417.87 622.08C412.33 623.07 406.78 624.07 401.22 624.93C399.2 625.24 398.46 626.11 398.61 628.17C398.99 633.24 399.51 638.33 399.41 643.4C399.32 648.09 399.04 652.89 397.91 657.41C394.34 671.86 378.92 678.08 367.14 673.85Z" fill="#06B6D4"/>
<path d="M1017.97 665.84C1021.14 665.15 1024.28 664.18 1027.49 663.82C1034.23 663.06 1041.02 662.01 1047.76 662.21C1056.64 662.48 1060.45 667.21 1059.26 676.03C1058 685.37 1056.16 694.65 1054.29 703.9C1053 710.3 1051.28 716.61 1049.68 722.94C1049.28 724.5 1048.83 726.22 1046.7 726.32C1044.48 726.42 1042.86 725.21 1042.33 723.3C1041.66 720.91 1040.98 718.24 1041.37 715.87C1043.04 705.67 1045.08 695.53 1047.05 685.39C1047.78 681.65 1048.79 677.96 1049.47 674.22C1050.12 670.65 1049.76 670.15 1046.06 670.43C1042.64 670.69 1039.22 671.27 1035.89 672.09C1029.99 673.53 1024.17 675.34 1018.27 676.82C1016.27 677.32 1014.12 677.6 1012.07 677.49C1005.23 677.11 1001.31 671.57 1003.58 665.12C1004.77 661.75 1006.63 658.52 1008.65 655.54C1013.44 648.47 1018.58 641.65 1023.42 634.62C1025.89 631.04 1028.09 627.26 1030.26 623.48C1031.64 621.06 1031.29 620.05 1028.52 619.79C1024.03 619.37 1019.41 618.93 1014.98 619.52C994.7 622.22 976.16 629.47 959.91 642.06C957 644.31 954.54 647.17 952.05 649.91C950.33 651.8 950.52 653.7 952.89 655.07C958.52 658.34 964.15 661.61 970.1 665.06C970.89 662.91 971.35 661.28 972.07 659.76C973.5 656.74 974.8 653.6 976.65 650.85C978.56 648.01 981.76 647.35 984.34 648.59C986.93 649.84 987.91 652.54 987.12 656.06C981.85 679.53 976.6 703.01 971.36 726.49C970.65 729.67 970.28 732.96 969.29 736.05C968.87 737.37 967.31 739.15 966.18 739.22C964.68 739.31 962.27 738.31 961.7 737.1C960.43 734.4 959.29 731.24 959.45 728.35C959.96 719.4 960.78 710.43 962.08 701.56C963.25 693.58 965.23 685.72 966.85 677.8C967.01 677.03 967.12 676.25 967.24 675.59C962.91 674.83 958.72 674.45 954.75 673.3C950.42 672.05 946.07 670.51 942.11 668.37C933.26 663.58 930.41 654.97 934.1 645.59C936.42 639.69 940.29 634.95 945.06 630.88C956.05 621.47 969.06 615.92 982.67 611.7C996.87 607.3 1011.36 605.05 1026.2 607.91C1029.64 608.57 1033.12 609.63 1036.23 611.18C1042.25 614.19 1044.33 619.72 1042.16 626.09C1041.32 628.56 1040.2 631.02 1038.79 633.2C1032.67 642.65 1026.4 652 1020.18 661.38C1019.34 662.65 1018.48 663.91 1017.62 665.18C1017.74 665.39 1017.86 665.62 1017.97 665.84Z" fill="#06B6D4"/>
<path d="M592.91 429.26C592.15 421.88 591.45 415.03 590.73 408.18C590.07 401.95 589.23 395.73 588.77 389.49C588.17 381.32 591.94 377.4 600.13 377.56C605.02 377.66 609.9 378.11 614.79 378.41C615.15 378.43 615.51 378.46 615.87 378.43C621.48 377.95 624.07 379.2 625.43 384.84C627.77 394.52 629.89 404.31 631.25 414.17C632.85 425.76 633.62 437.47 634.58 449.14C634.91 453.11 634.85 457.13 634.73 461.11C634.61 465.17 632.51 467.54 628.47 468.06C625.33 468.47 622.14 468.5 618.97 468.59C607.17 468.93 595.36 469.21 583.56 469.57C582.73 469.6 581.7 469.89 581.12 470.44C573.76 477.49 564.93 482.42 556.36 487.7C551.66 490.6 546.86 493.44 541.82 495.69C535.27 498.61 528.46 499.29 521.97 495.22C516.49 491.78 513.82 486.44 513.03 480.28C511.28 466.72 515.12 454.54 523.02 443.61C531.15 432.36 541.79 424.62 555.71 422.34C564.78 420.85 573.61 422.82 582.26 425.54C585.63 426.59 588.92 427.86 592.91 429.26ZM611.35 387.71C609.53 388.38 608.21 389.03 606.81 389.34C604.63 389.82 604.03 390.9 604.18 393.17C604.64 400.14 604.66 407.14 605.1 414.12C605.59 421.9 606.23 429.67 607.05 437.42C607.31 439.86 607.3 441.95 605.26 443.55C603.21 445.16 601.11 444.66 598.84 443.83C590.84 440.9 582.89 437.74 574.71 435.4C562.51 431.9 551.12 433.79 541.3 442.34C534.2 448.52 529.88 456.36 527.77 465.44C526.63 470.32 525.88 475.27 527.36 480.25C528.44 483.88 530.18 485.05 533.85 484.27C536.05 483.8 538.3 483.13 540.25 482.05C548.97 477.2 557.68 472.32 566.19 467.11C568.57 465.66 570.59 463.28 572.15 460.92C574.35 457.61 577.08 455.96 580.99 456.21C582.8 456.33 584.61 456.51 586.42 456.64C598.19 457.46 609.96 458.3 621.73 459.06C623.39 459.17 625.08 458.9 627.04 458.79C626.65 457.81 626.53 457.27 626.24 456.85C623.37 452.72 621.88 448.07 621.3 443.15C620.58 437.02 620.25 430.84 619.39 424.74C617.62 412.31 617.58 399.47 611.35 387.71Z" fill="#06B6D4"/>
<path d="M894.31 443.22C896.98 442.38 899.67 441.59 902.32 440.68C908.42 438.59 914.49 436.4 920.59 434.32C922.65 433.62 924.74 432.96 926.87 432.55C936.01 430.79 942.58 435.21 943.24 444.49C943.72 451.22 942.81 458.06 942.54 464.85C942.4 468.39 942.31 471.93 942.18 475.46C941.75 487.17 954.06 495.36 964.48 492.7C969.21 491.49 973.24 489.33 976.54 485.72C978.19 483.91 979.85 482.09 981.7 480.5C983.31 479.12 985.31 478.51 987.17 480.07C988.99 481.59 988.76 483.6 987.88 485.55C987.51 486.37 987.02 487.15 986.5 487.89C979.25 498.15 961.84 504.74 949.62 501.86C935.84 498.61 928.36 489.76 927.98 475.62C927.82 469.56 928.49 463.47 928.71 457.4C928.81 454.8 928.73 452.18 928.73 449.2C926.9 449.71 925.21 450.01 923.66 450.64C917.53 453.15 911.46 455.83 905.32 458.31C901.54 459.83 897.68 461.17 893.81 462.45C892.54 462.87 891.12 462.93 889.77 462.95C879.59 463.14 873.24 455.51 875.97 445.73C878.09 438.14 880.87 430.72 883.66 423.33C887.8 412.38 892.26 401.55 896.46 390.62C897.43 388.09 897.96 385.39 898.64 382.76C899.23 380.47 898.42 379.25 895.93 379.4C886.56 379.97 878.89 384.1 872.52 390.78C872.05 391.27 872.17 392.57 872.37 393.42C872.79 395.26 873.69 397.02 873.93 398.87C874.26 401.48 872.77 402.97 870.2 402.56C865.05 401.74 860.52 399.61 858.29 394.57C856.18 389.8 857.57 385.29 861.04 381.77C871.41 371.26 884.14 366.56 898.82 368.01C906.29 368.75 911.09 374.11 911.11 381.63C911.13 386.55 910.47 391.66 909.04 396.36C905.98 406.42 902.17 416.26 898.76 426.21C896.89 431.66 895.2 437.17 893.43 442.66C893.74 442.83 894.02 443.02 894.31 443.22Z" fill="#06B6D4"/>
<path d="M1230.81 382.92C1228.33 373.94 1225.46 365.15 1223.55 356.16C1221.64 347.14 1220.7 337.92 1219.29 328.5C1218.69 328.93 1218.26 329.2 1217.89 329.52C1211.34 335.31 1203.57 335.11 1197.52 328.72C1192.63 323.55 1189.17 317.35 1187.49 310.52C1185.42 302.08 1184.28 293.41 1182.6 284.87C1181.18 277.66 1179.55 270.49 1178.03 263.3C1177.67 261.62 1177.18 259.94 1177.09 258.24C1176.95 255.8 1177.98 253.79 1180.18 252.59C1182.36 251.4 1184.85 251.33 1186.59 252.96C1188.64 254.9 1190.88 257.2 1191.7 259.78C1193.96 266.84 1195.91 274.05 1197.25 281.34C1199.07 291.24 1199.78 301.36 1203.4 310.88C1204.53 313.84 1205.91 316.71 1207.32 319.54C1208.3 321.51 1209.74 321.68 1211.04 319.81C1213.36 316.45 1215.63 313.06 1217.82 309.61C1219.82 306.47 1221.74 303.12 1226.25 304.24C1230.66 305.34 1231.15 309.18 1231.51 312.85C1233.06 328.85 1234.47 344.86 1236.08 360.86C1236.94 369.4 1239.34 377.59 1242.74 385.47C1244.3 389.09 1242.9 392.09 1238.66 392.88C1232.33 394.07 1225.93 394.93 1219.55 395.87C1207.5 397.64 1195.44 399.42 1183.93 403.58C1179.6 405.15 1175.39 407.18 1171.36 409.41C1166.14 412.29 1162.24 416.59 1159.77 422.06C1157.65 426.75 1155.67 431.5 1153.47 436.15C1153.23 436.66 1151.57 437.15 1151.24 436.86C1149.9 435.7 1148.51 434.41 1147.71 432.87C1145.35 428.32 1145.28 423.4 1146.28 418.51C1146.91 415.41 1147.91 412.37 1148.92 409.36C1152.31 399.3 1159.23 392.47 1169.38 389.95C1178.94 387.58 1188.78 386.09 1198.59 385.01C1208.87 383.88 1219.25 383.69 1229.59 383.08C1230.19 383.03 1230.79 382.93 1230.81 382.92Z" fill="#06B6D4"/>
<path d="M1209.41 804.95C1210.92 803.17 1212.32 801.29 1213.96 799.64C1215.74 797.85 1217.55 795.97 1219.69 794.7C1223.48 792.43 1227.02 793.76 1228.92 797.73C1229.15 798.22 1229.43 798.72 1229.52 799.24C1230.51 804.81 1234.38 807.09 1239.44 808.31C1244.16 809.45 1248.82 809.3 1253.48 808.31C1256.61 807.64 1257.49 806.22 1257.06 802.98C1256.32 797.38 1252.87 793.41 1248.34 790.75C1244 788.21 1239.11 786.6 1234.45 784.62C1232.87 783.95 1231.14 783.57 1229.64 782.77C1227.1 781.41 1225.9 778.73 1226.36 776.14C1226.85 773.4 1229.01 771.42 1231.99 770.98C1250.04 768.3 1268.07 765.54 1285.55 760.07C1285.8 759.99 1286.08 760.03 1286.73 760C1286.73 761.63 1286.73 763.21 1286.73 764.79C1286.73 766.42 1286.73 768.04 1286.73 770.08C1275.8 772.55 1264.95 774.99 1253.74 777.52C1254.95 778.42 1255.95 779.14 1256.91 779.88C1265.59 786.57 1269.07 797.62 1265.51 807.04C1264.26 810.34 1262.15 812.89 1258.99 814.4C1248.26 819.52 1237.76 818.41 1227.79 812.48C1225.44 811.08 1223.9 808.34 1221.73 805.93C1219.44 808.5 1216.82 811.31 1214.35 814.25C1212.13 816.89 1210.14 819.73 1207.93 822.37C1206.78 823.75 1205.51 825.15 1204.02 826.09C1200.38 828.4 1196.07 826.62 1195.05 822.42C1194.65 820.78 1194.65 819 1194.7 817.3C1195.11 805.23 1198.6 793.91 1203.07 782.81C1205.82 776 1208.53 769.16 1211.02 762.26C1211.56 760.76 1211.11 758.91 1211.12 757.22C1209.55 757.84 1207.75 758.15 1206.44 759.12C1200.37 763.6 1195.63 769.23 1191.84 775.8C1180.51 795.46 1176.52 816.79 1176.95 839.18C1176.97 840.16 1177.32 841.14 1177.34 842.12C1177.37 843.32 1177.65 845.01 1177.01 845.62C1176.23 846.36 1174.15 846.83 1173.4 846.3C1171.55 845 1169.63 843.33 1168.65 841.36C1164.27 832.59 1163.16 823.18 1164.2 813.5C1166.07 796.14 1172.6 780.5 1182.11 766.03C1187.2 758.3 1194.02 752.48 1202.83 749.51C1206.53 748.27 1210.61 747.93 1214.55 747.67C1217.17 747.5 1218.47 749.66 1219.11 752C1220.79 758.22 1220.5 764.44 1218.76 770.57C1215.78 781.04 1212.63 791.47 1209.58 801.92C1209.31 802.84 1209.19 803.79 1209.01 804.73C1209.14 804.81 1209.27 804.88 1209.41 804.95Z" fill="#06B6D4"/>
<path d="M1154.73 630.99C1166.91 631.44 1176.69 634.94 1184.5 643.01C1187.58 646.2 1189.11 649.78 1189.35 654.62C1189.67 661.2 1187.83 667.06 1185.66 672.82C1179.92 688.01 1173.76 703.04 1167.59 718.06C1166.36 721.05 1164.52 723.84 1162.64 726.49C1160.47 729.55 1157.95 729.65 1154.98 727.38C1154.33 726.89 1153.38 726.61 1152.55 726.56C1127.94 725.19 1109.34 707.16 1108.17 682.61C1106.99 657.84 1123.89 636.18 1147.46 631.84C1150.22 631.35 1153.04 631.18 1154.73 630.99ZM1154.66 716.15C1162.06 695.43 1169.43 674.8 1176.82 654.12C1165.21 645.36 1147.79 644.26 1135.54 655.9C1123.27 667.56 1121.16 688.39 1130.98 702.37C1136.73 710.59 1144.37 715.76 1154.66 716.15Z" fill="#06B6D4"/>
<path d="M1234.93 718.11C1227.23 720.21 1219.83 722.33 1212.36 724.21C1210.29 724.73 1208.02 724.78 1205.87 724.65C1197.85 724.16 1192.21 717.32 1193.84 709.44C1194.59 705.82 1196.13 702.03 1198.37 699.12C1202.72 693.45 1207.66 688.21 1212.62 683.05C1216.96 678.54 1221.82 674.53 1226.16 670.02C1231.97 663.98 1236.62 657.19 1237.8 648.6C1238.87 640.8 1236.21 637.04 1228.47 635.87C1225.01 635.35 1221.28 634.27 1218.4 637.81C1218.09 638.19 1216.1 637.77 1215.39 637.14C1212.07 634.19 1213.12 629.39 1217.49 627.46C1222.57 625.21 1227.92 625.15 1233.28 626.09C1242.82 627.77 1248.66 634.13 1249.81 643.76C1250.64 650.72 1249.25 657.3 1246.7 663.73C1243 673.03 1237.58 681.26 1231.24 688.94C1227.67 693.26 1224.21 697.68 1220.7 702.06C1220.83 702.27 1220.95 702.47 1221.08 702.68C1221.95 702.4 1222.83 702.16 1223.68 701.85C1227.43 700.48 1231.09 698.79 1234.93 697.77C1242.68 695.71 1248.42 699.69 1249.64 707.62C1250.19 711.21 1250.47 714.85 1251.24 718.39C1252.7 725.11 1256.08 727.75 1262.96 727.7C1270.24 727.65 1277.17 725.98 1283.72 722.76C1284.59 722.33 1285.48 721.95 1286.71 721.38C1286.71 726.41 1286.76 731.1 1286.65 735.78C1286.64 736.35 1285.87 737.18 1285.26 737.43C1276.56 741.02 1267.51 742.95 1258.12 741.79C1247.52 740.48 1240.35 734.51 1236.76 724.41C1236 722.3 1235.5 720.08 1234.93 718.11Z" fill="#06B6D4"/>
<path d="M1112.52 276.117C1111.39 276.547 1110.48 276.857 1109.6 277.237C1086.52 287.247 1063.45 297.297 1040.35 307.267C1035.43 309.387 1030.41 311.267 1025.39 313.157C1021.3 314.697 1018.4 314.257 1016.87 312.087C1015.28 309.837 1015.88 306.197 1018.57 303.097C1022.86 298.157 1028.03 294.237 1033.94 291.557C1041.7 288.027 1049.6 284.747 1057.58 281.747C1075.02 275.187 1092.47 268.687 1108.95 259.917C1111.48 258.567 1113.93 256.917 1116.07 255.007C1121.99 249.737 1130.51 251.577 1133.1 259.087C1133.96 261.587 1134.19 264.447 1134.07 267.117C1133.39 282.047 1134.97 296.667 1139.18 311.037C1140 313.847 1140.47 316.997 1140.1 319.857C1139.23 326.487 1131.88 329.067 1126.91 324.597C1125.13 322.997 1123.75 320.847 1122.54 318.747C1117.24 309.497 1115.19 299.267 1113.85 288.857C1113.34 284.737 1112.99 280.597 1112.52 276.117Z" fill="#06B6D4"/>
<path d="M162.11 777.38C163.31 777.38 164.74 776.97 165.66 777.47C167.33 778.38 168.28 779.81 167.8 782.12C164.97 795.93 150.25 809.01 136.12 809.63C124.61 810.14 116.37 804.37 110.73 794.76C106.15 786.96 104.56 778.26 104.84 769.34C105.3 754.76 110.23 741.63 118.82 729.92C122.92 724.33 128.33 720.46 135.4 719.41C140.31 718.69 142.55 720.38 145.69 724.19C148.71 727.85 148.89 731.89 149.41 736.09C151 748.91 153.08 761.62 158.85 773.38C159.64 774.99 160.65 776.49 161.56 778.04C161.76 777.82 161.94 777.6 162.11 777.38ZM155.47 786.32C155.47 786.07 155.47 785.83 155.47 785.58C146.24 782.48 142.22 775.08 140.13 766.51C138.7 760.64 137.86 754.56 137.36 748.53C136.9 743 137.26 737.4 137.26 731.83C136.84 731.65 136.42 731.47 136 731.29C133.75 733.79 131.23 736.1 129.32 738.84C126.14 743.39 124.9 748.73 124.04 754.15C122.42 764.41 123.87 774.26 128.25 783.63C131.53 790.66 137.03 793.05 144.39 790.71C148.17 789.51 151.79 787.8 155.47 786.32Z" fill="#06B6D4"/>
<path d="M630.02 660.32C627.75 662.77 625.79 665.16 623.54 667.25C621.43 669.21 619.19 671.17 616.69 672.56C609.9 676.33 602.45 674.6 597.44 668.42C593.97 664.14 592.54 658.98 591.03 653.82C590.12 650.71 588.99 647.65 587.73 644.67C586.44 641.61 585.96 638.55 587.12 635.41C589.81 628.18 599.09 626.14 604.5 632.03C607.03 634.78 608.42 638.65 609.98 642.17C610.95 644.35 611.25 646.83 611.85 649.17C612.16 649.4 612.48 649.62 612.79 649.85C613.42 648.87 613.88 647.69 614.72 646.94C617.98 644.07 621.08 640.87 624.75 638.66C633.46 633.42 642.29 636.63 646.03 646.06C647.12 648.82 647.79 651.75 648.78 655C649.81 654.25 650.81 653.7 651.6 652.92C655.14 649.4 658.59 645.79 662.14 642.28C672.13 632.4 679.67 632.64 689.2 642.97C693.26 647.37 697.43 651.68 701.65 655.93C703.11 657.4 704.9 658.53 706.47 659.89C707.17 660.5 708.34 661.47 708.19 661.95C707.94 662.8 706.97 663.68 706.09 664.08C700.96 666.39 695.74 666.21 690.86 663.58C686.08 661 681.45 658.1 676.98 655.02C675.13 653.74 674.21 653.82 672.74 655.37C669.24 659.05 665.73 662.77 661.88 666.07C659.02 668.53 655.83 670.79 652.43 672.39C645.46 675.67 638.67 673.67 634.17 667.4C632.66 665.29 631.52 662.91 630.02 660.32Z" fill="#06B6D4"/>
<path d="M811.66 719.43C808.65 721.6 805.63 723.72 802.67 725.93C798.27 729.22 793.75 732.19 788.11 732.93C776.08 734.51 765.05 724.29 765.78 712.2C765.98 708.94 767.64 706.64 770.39 705.8C773.16 704.95 776.21 706.03 777.96 708.75C779.03 710.42 779.73 712.32 780.68 714.07C782.61 717.64 785.34 718.55 788.83 716.47C791.39 714.95 793.64 712.91 796.14 711.26C800.22 708.58 804.18 705.56 808.58 703.53C816.35 699.94 822.85 702.51 826.77 710.16C828.01 712.57 828.98 715.12 830.25 718.01C831.09 717.27 831.79 716.66 832.49 716.05C835.7 713.24 838.69 710.13 842.15 707.68C850.07 702.09 857.9 703.82 863.15 711.96C865.78 716.05 866.98 716.24 870.69 712.94C872.59 711.25 874.28 709.32 876.2 707.67C881.24 703.35 887.11 703.34 891.92 707.93C898.15 713.89 902.54 721.03 904.34 729.57C904.94 732.39 904.17 733.14 901.4 732.44C895.29 730.9 890.48 727.28 886.13 722.88C883.31 720.02 883.36 720.25 879.99 722.31C876.29 724.57 872.53 726.88 868.52 728.43C862.94 730.58 857.37 729.6 852.38 726.33C850.69 725.22 849.6 725.35 848.09 726.52C844.86 729.01 841.59 731.49 838.14 733.67C830.02 738.81 823.19 737.49 817.61 729.63C815.45 726.55 813.79 723.11 811.66 719.43Z" fill="#06B6D4"/>
<path d="M746.29 688.29C748.33 686.01 749.95 683.93 751.84 682.13C755.45 678.7 758.98 675.11 762.98 672.19C768.3 668.3 773.61 669.25 778 674.18C778.42 674.65 778.82 675.15 779.21 675.65C782.82 680.2 784.74 680.86 790.21 678.75C793.07 677.65 795.76 676.07 798.49 674.65C801.9 672.88 805.36 672.06 808.81 674.35C812.26 676.64 813.14 680.26 812.52 683.97C811.99 687.13 810.66 690.18 809.51 693.21C808.94 694.7 807.65 694.98 806.46 693.84C804.9 692.35 803.48 690.7 801.74 688.86C800.85 689.33 799.77 689.92 798.68 690.49C793.53 693.2 788.15 694.92 782.22 694.31C775.46 693.62 770.59 690.08 767.08 683.85C765.34 685.55 763.74 686.97 762.31 688.54C759.38 691.77 756.71 695.23 753.65 698.33C747.56 704.49 740.57 704.46 734.56 698.22C732.12 695.69 730.06 692.75 728.06 689.85C726.76 687.97 725.66 687.9 723.88 689.16C720.33 691.68 716.82 694.35 712.98 696.37C708.52 698.71 703.87 700.99 699.03 702.27C690.9 704.41 683.25 700.97 679.6 693.43C677.18 688.43 675.6 682.93 674.33 677.49C673.23 672.79 678.4 669.06 682.84 671.33C684.94 672.4 686.68 674.57 688.06 676.59C689.68 678.97 690.72 681.74 692.06 684.31C693.19 686.46 694.97 687.09 697.06 685.87C700.1 684.09 703.1 682.19 705.99 680.18C709.94 677.44 713.59 674.22 717.7 671.77C727.55 665.89 735.91 668.26 741.48 678.3C743.21 681.37 744.56 684.66 746.29 688.29Z" fill="#06B6D4"/>
<path d="M325.25 854.2C329.75 851.17 334.25 848.16 338.73 845.1C340.38 843.97 341.92 842.69 343.55 841.54C345.87 839.92 348.38 839.38 350.99 840.73C353.62 842.09 354.53 844.49 354.54 847.31C354.54 847.93 354.54 848.56 355.11 849.48C356.19 847.7 357.52 846.03 358.31 844.13C360.44 839.04 364.19 837.5 369.55 837.46C396.8 837.26 424.05 836.77 451.3 836.39C455.66 836.33 460.02 836.26 464.38 836.3C465.82 836.31 467.29 836.52 468.68 836.89C471.33 837.59 473.08 839.81 473.24 842.39C473.39 844.97 471.97 847.39 469.35 848.35C467.67 848.96 465.83 849.33 464.04 849.41C452.61 849.93 441.18 850.56 429.74 850.73C410.85 851.01 391.95 851.03 373.05 851.01C370.4 851.01 368.65 851.79 367.07 853.87C364.88 856.76 362.46 859.49 360.02 862.17C358.87 863.43 357.53 864.59 356.1 865.53C351.8 868.33 346.98 867.14 344.44 862.67C343.56 861.12 343 859.39 342.23 857.6C339.36 859.35 336.69 861.27 333.78 862.68C329.88 864.57 325.92 866.6 321.75 867.61C313.68 869.57 308.57 863.93 311.33 856.15C313.32 850.53 316.11 845.19 318.61 839.75C318.98 838.95 319.61 838.22 320.26 837.61C322.03 835.94 324.13 835.59 326.3 836.67C328.4 837.72 329.33 839.66 328.91 841.9C328.55 843.83 327.74 845.7 327.03 847.55C326.26 849.56 325.37 851.53 324.54 853.51C324.78 853.74 325.01 853.97 325.25 854.2Z" fill="#06B6D4"/>
<path d="M304.12 733.68C305.2 723.75 306.23 714.23 307.27 704.55C307.24 704.55 306.64 704.46 306.06 704.56C292.9 706.84 279.75 709.18 266.58 711.39C264.47 711.74 263.65 712.75 262.96 714.71C260.9 720.52 258.61 726.25 256.19 731.92C255.39 733.8 254.05 735.51 252.73 737.1C251.27 738.85 249.27 739.53 247.09 738.51C245.04 737.54 244.23 735.65 244.56 733.52C244.94 731.12 245.48 728.7 246.29 726.41C247.83 722.04 249.64 717.78 251.24 713.43C251.6 712.46 251.79 711.29 251.62 710.28C250.89 705.93 251.94 703.24 256.12 701.55C259.71 700.1 263.53 699 267.34 698.36C279.25 696.38 291.23 694.76 303.16 692.86C306.83 692.28 310.43 691.25 314.05 690.4C317.2 689.66 320.24 689.52 322.63 692.18C325.01 694.81 324.59 697.77 323.66 700.89C320.96 709.93 318.37 719.01 315.85 728.1C315.6 729.02 316.03 730.17 316.3 731.17C317.79 736.86 319.39 742.52 320.79 748.24C321.1 749.51 320.86 750.95 320.71 752.29C320.49 754.29 319.34 756.07 317.39 756C315.85 755.95 313.99 754.9 312.94 753.7C311.73 752.33 311.14 750.36 310.51 748.57C309.92 746.89 309.15 746.51 307.31 746.81C295.47 748.72 283.61 750.47 271.75 752.21C270.06 752.46 268.29 752.49 266.59 752.34C263.15 752.03 260.81 749.76 260.55 746.73C260.28 743.66 262.11 740.97 265.58 740.27C274.39 738.49 283.23 736.89 292.08 735.34C296.26 734.63 300.49 734.18 304.12 733.68Z" fill="#06B6D4"/>
<path d="M257.47 470.94C254.64 472.1 252.13 473.08 249.66 474.16C235.16 480.45 220.7 486.82 206.17 493.02C202.85 494.44 199.34 495.49 195.83 496.38C193.94 496.86 191.85 496.88 189.9 496.66C187.13 496.35 185.09 494.17 184.84 491.69C184.56 488.9 185.9 486.99 188.32 485.78C189.21 485.34 190.16 485 191.09 484.65C197.38 482.27 203.64 479.82 209.96 477.55C226.94 471.44 243.19 463.86 258.5 454.27C264.73 450.37 270.37 452.21 273.46 458.9C276.36 465.18 277.32 471.94 277.99 478.73C278.38 482.71 278.65 486.7 278.85 490.69C278.93 492.21 278.87 493.81 278.5 495.28C277.61 498.83 275.34 501.2 271.67 501.89C268.01 502.58 264.85 501.3 262.95 498.2C261.71 496.19 261.01 493.71 260.62 491.35C259.71 485.89 259.14 480.37 258.39 474.89C258.2 473.66 257.82 472.47 257.47 470.94Z" fill="#06B6D4"/>
<path d="M1037.93 447.87C1035.26 447.87 1032.73 448.06 1030.23 447.83C1022.43 447.12 1018 441.81 1018.54 433.98C1018.6 433.08 1018.73 432.17 1018.94 431.29C1021.4 421.05 1032.86 405.81 1046.37 405.68C1058.03 405.56 1075.92 412.57 1078.19 429.7C1079.22 437.5 1077.04 444.49 1071.94 450.42C1067.37 455.73 1061.48 459.12 1054.69 460.72C1046.44 462.67 1040.1 458.44 1038.42 450.15C1038.26 449.37 1038.08 448.59 1037.93 447.87ZM1067.04 434.83C1066.37 432.79 1066.02 430.55 1064.96 428.73C1061.49 422.81 1056.12 419.21 1049.65 417.25C1048.72 416.97 1047.24 417.38 1046.42 418.01C1043.53 420.2 1040.47 422.32 1038.14 425.04C1035.84 427.73 1034.27 431.07 1032.55 434.22C1031.75 435.7 1032.52 436.65 1034.19 436.77C1037.73 437.03 1041.29 437.49 1044.1 434.47C1044.7 433.83 1045.57 433.41 1046.38 433.01C1049.43 431.53 1052.48 432.11 1053.94 434.4C1055.39 436.67 1054.72 439.25 1051.87 441.43C1049.34 443.36 1049.03 445.91 1049.47 448.74C1049.73 450.39 1050.8 450.97 1052.42 450.79C1059.45 450.04 1066.62 442.09 1067.04 434.83Z" fill="#06B6D4"/>
<path d="M1076.09 849.17C1089.62 849.17 1103.14 849.21 1116.67 849.15C1122.95 849.12 1127.57 853.21 1127.45 858.89C1127.33 864.45 1122.7 868.35 1116.57 868.28C1089.88 867.98 1063.18 867.76 1036.49 867.44C1034.45 867.42 1032.27 867.14 1030.41 866.39C1026.79 864.92 1024.95 861.36 1025.37 857.58C1025.78 853.9 1028.5 850.88 1032.25 850.05C1033.22 849.84 1034.23 849.75 1035.22 849.75C1048.84 849.73 1062.46 849.74 1076.09 849.74C1076.09 849.54 1076.09 849.35 1076.09 849.17Z" fill="#06B6D4"/>
<path d="M1257.63 316.52C1256.3 316.81 1255.17 317.05 1254.05 317.3C1246.96 318.86 1241.5 313.58 1243.44 306.6C1244.49 302.81 1246.11 298.99 1248.31 295.75C1252.68 289.3 1257.43 283.08 1262.39 277.07C1269.61 268.32 1277.17 259.84 1284.58 251.25C1285.1 250.65 1285.67 250.08 1286.73 248.95C1286.73 253.42 1286.39 257.3 1286.81 261.09C1287.4 266.41 1285.38 270.26 1281.99 274.22C1274.73 282.69 1267.98 291.59 1261.08 300.35C1260.09 301.61 1259.4 303.11 1258.56 304.52C1261.09 305.95 1263.52 307.17 1265.78 308.64C1269.13 310.81 1270.13 313.85 1269.97 317.96C1269.65 326.2 1269.98 334.46 1270.18 342.72C1270.34 349.71 1270.76 356.69 1270.91 363.68C1270.95 365.45 1270.82 367.53 1269.92 368.92C1268.95 370.41 1267.03 372.06 1265.45 372.15C1263.86 372.24 1261.87 370.77 1260.62 369.44C1259.69 368.44 1259.4 366.62 1259.28 365.12C1257.99 349.38 1255.98 333.67 1257.79 317.83C1257.82 317.56 1257.73 317.29 1257.63 316.52Z" fill="#06B6D4"/>
<path d="M1204.39 453.95C1199.93 455.57 1195.47 455.98 1191.26 453.14C1186.51 449.94 1183.66 445.55 1184.08 439.64C1184.58 432.71 1187.94 427.25 1193.42 423.1C1200.52 417.71 1208.8 415.27 1217.46 414.44C1225.85 413.64 1234.31 413.63 1242.74 413.24C1245.19 413.13 1247.64 413.03 1250.07 412.72C1255.94 411.97 1259.33 408.76 1259.95 402.89C1260.23 400.25 1259.44 397.52 1259.44 394.83C1259.44 393.33 1259.59 391.2 1260.53 390.5C1261.75 389.59 1263.98 389.26 1265.49 389.7C1268.63 390.6 1270.02 393.43 1270.9 396.39C1274.46 408.46 1267.52 422.23 1255.45 426.3C1251.38 427.67 1246.96 428.22 1242.66 428.65C1232.19 429.69 1221.69 430.28 1211.23 431.38C1208.13 431.71 1205.12 433.01 1202.13 434.07C1200.88 434.51 1199.73 435.38 1198.7 436.23C1193.26 440.73 1193.58 446.14 1199.52 450.01C1201.21 451.11 1202.99 452.06 1204.73 453.08C1204.61 453.37 1204.5 453.66 1204.39 453.95Z" fill="#06B6D4"/>
<path d="M1286.73 609.28C1286.73 610.2 1286.73 611.09 1286.73 611.99C1286.73 636.78 1286.7 661.57 1286.79 686.35C1286.8 688.56 1286.11 689.47 1284.09 690.22C1280.87 691.42 1277.78 693 1274.72 694.56C1268.11 697.93 1262.14 694.34 1262.79 686.97C1264.41 668.53 1266.12 650.09 1268.26 631.71C1268.8 627.06 1270.6 622.37 1272.68 618.12C1275.26 612.83 1280.68 609.86 1286.73 609.28Z" fill="#06B6D4"/>
<path d="M502.54 514.68C492.8 514.54 485.82 509.74 481.11 501.55C475.25 491.36 474.63 480.35 476.8 469.07C480.22 451.25 488.87 436.16 500.99 422.87C502.37 421.35 503.29 419.4 504.67 417.89C506.36 416.05 508.09 414.07 510.2 412.84C513.69 410.81 517.68 413.34 517.57 417.38C517.52 419.03 516.99 420.83 516.16 422.26C514.01 425.94 511.71 429.54 509.23 433.01C499.55 446.54 492.38 461.17 489.36 477.66C487.85 485.89 488.94 493.71 492.57 501.24C495.03 506.34 499.01 509.66 504.06 511.94C504.95 512.34 505.65 513.16 506.44 513.78C505.41 514.08 504.38 514.39 503.34 514.67C503.1 514.73 502.81 514.68 502.54 514.68Z" fill="#06B6D4"/>
<path d="M263.72 824.93C263.72 828.38 263.6 831.84 263.75 835.28C263.96 840.03 261.89 843.97 259.21 847.51C258.22 848.82 256.04 849.78 254.33 849.89C248.56 850.26 242.91 849.35 237.58 846.96C228.32 842.81 224.5 834.32 227.9 824.71C231.67 814.07 239.76 807.61 249.74 803.16C250.73 802.72 251.76 802.36 252.74 801.89C256.87 799.9 260.99 801.53 262.22 805.98C262.94 808.58 263.03 811.35 263.37 814.04C263.46 814.76 263.47 815.49 263.48 816.22C263.49 819.12 263.48 822.03 263.48 824.93C263.57 824.93 263.64 824.93 263.72 824.93ZM248.51 818.28C244.66 822.09 241.35 825.66 240.08 830.52C239.73 831.86 240.08 834.18 241 834.9C243.01 836.47 245.6 837.3 248.5 838.69C248.51 831.43 248.51 825.16 248.51 818.28Z" fill="#06B6D4"/>
<path d="M74.38 829.15C74.27 822.62 79.62 819.79 85.29 821.89C91.13 824.05 97.17 825.74 103.24 827.17C106.91 828.03 110.79 828.05 114.58 828.34C118.65 828.65 121.5 832.96 119.34 836.37C113.7 845.25 107.84 854 101.74 862.57C99.27 866.04 97.18 866.06 93.14 864.77C88.48 863.28 85.62 859.97 83.92 855.73C81.15 848.83 78.73 841.79 76.2 834.79C75.42 832.66 74.8 830.48 74.38 829.15Z" fill="#06B6D4"/>
<path d="M877.81 649.42C877.81 652.3 877.98 656.31 877.74 660.29C877.61 662.51 877.18 664.87 876.22 666.84C873.73 671.97 867.23 673.42 862.82 669.64C858.4 665.84 853.45 663.2 848.14 660.96C841.73 658.25 840.05 652.71 844.02 647.06C846.29 643.84 849.06 640.95 851.79 638.09C854.73 635.01 857.9 632.15 860.94 629.17C863.54 626.63 865.92 623.68 870.28 625.34C876.07 627.54 878.68 630.7 878.59 636.08C878.54 640.15 878.14 644.22 877.81 649.42Z" fill="#06B6D4"/>
<path d="M1069.92 348.87C1069.51 349.58 1068.98 351.24 1067.86 352.27C1065.27 354.66 1062.56 356.99 1059.61 358.9C1050.24 364.97 1040.72 370.81 1031.3 376.81C1016.68 386.12 1002.1 395.51 987.48 404.81C984.96 406.41 982.33 407.88 979.64 409.19C978.21 409.89 976.49 410.65 975.01 410.46C973.52 410.27 971.59 409.26 970.95 408.03C970.38 406.95 970.86 404.72 971.7 403.64C973.06 401.9 974.97 400.49 976.87 399.28C988.65 391.75 1000.31 384.02 1012.35 376.94C1026.54 368.6 1040.25 359.61 1053.37 349.67C1056.38 347.39 1059.73 345.44 1063.17 343.89C1066.7 342.29 1069.96 344.5 1069.92 348.87Z" fill="#06B6D4"/>
<path d="M215.76 537.06C216.3 528.79 217.13 522.33 220.38 516.44C223.67 510.48 229.1 508.09 236.85 509.18C242.22 509.94 246.99 514.19 247.91 520.17C249.69 531.72 246.62 542.12 238.27 550.36C231.54 557 221.9 554.88 218.14 546.19C216.68 542.86 216.26 539.08 215.76 537.06Z" fill="#06B6D4"/>
<path d="M180.79 682.01C180.86 694.91 178.85 707.37 172.84 718.93C171.73 721.07 170.28 723.13 168.63 724.88C167.03 726.57 164.83 727.46 162.42 726.44C160.01 725.42 159.18 723.22 159.17 720.89C159.17 718.56 159.56 716.2 159.99 713.89C162.09 702.38 164.55 690.92 166.3 679.36C167.51 671.33 166.62 663.23 164.99 655.25C164.66 653.65 164.33 652.03 164.24 650.41C164.12 648.18 164.87 646.24 167.09 645.3C169.42 644.32 171.51 645.07 172.92 646.95C174.21 648.67 175.28 650.62 176.09 652.62C179.96 662.03 180.74 671.97 180.79 682.01Z" fill="#06B6D4"/>
<path d="M32.64 555.42C32.28 563.37 32.01 570.16 31.64 576.96C31.55 578.67 31.35 580.42 30.86 582.05C29.36 587.09 24.1 588.5 20.43 584.71C18.91 583.14 17.53 581.03 17.05 578.94C15.65 572.87 14.15 566.72 13.77 560.54C13.21 551.5 13.55 542.41 13.61 533.34C13.62 531.36 13.9 529.35 14.34 527.41C15.17 523.74 17.97 521.28 21.47 520.84C24.89 520.42 28.38 522.19 29.92 525.58C30.84 527.61 31.51 529.89 31.64 532.09C32.14 540.24 32.36 548.4 32.64 555.42Z" fill="#06B6D4"/>
<path d="M1235.91 869.94C1234.53 872.06 1233.53 874.64 1231.68 876.21C1227.18 880.02 1221.74 882.14 1215.91 883.08C1210.34 883.97 1207.01 880.59 1207.96 874.94C1209.32 866.8 1210.82 858.68 1212.27 850.55C1213.22 845.19 1214.18 839.83 1215.16 834.48C1215.31 833.68 1215.53 832.88 1215.83 832.13C1217.09 828.9 1219.67 827.2 1222.74 827.52C1225.74 827.83 1227.94 830.13 1228.4 833.57C1228.78 836.36 1229.11 839.15 1229.37 841.96C1230.14 850.39 1231.18 858.75 1234.67 866.59C1235.07 867.48 1235.11 868.52 1235.32 869.49C1235.52 869.63 1235.72 869.78 1235.91 869.94Z" fill="#06B6D4"/>
<path d="M824.9 499.45C813.85 499.36 804.6 495.69 797.6 487.18C794.97 483.98 793.08 480.36 792.57 476.17C792.09 472.26 793.67 468.95 796.68 467.37C799.66 465.81 803.33 466.4 806.27 468.98C807.22 469.82 808.16 470.71 808.9 471.73C817.48 483.51 829.18 486.63 842.89 483.84C846.04 483.2 849.03 481.76 852.11 480.73C852.98 480.44 853.91 480.32 854.81 480.12C854.84 481.07 855.11 482.09 854.86 482.97C853.48 487.85 850.22 491.32 846.08 494.02C839.58 498.27 832.21 499.14 824.9 499.45Z" fill="#06B6D4"/>
<path d="M1279.59 504.25C1279.39 505.1 1279.07 506.79 1278.62 508.45C1274.86 522.19 1271.07 535.92 1267.33 549.67C1267.02 550.8 1267.03 552.01 1266.76 553.15C1265.98 556.45 1263.09 558.38 1259.84 557.85C1256.65 557.33 1254.54 554.48 1254.86 551.11C1256.1 538.11 1257.35 525.11 1258.59 512.1C1258.95 508.31 1258.92 504.45 1259.66 500.74C1260.75 495.26 1265.66 491.94 1270.88 492.62C1276.1 493.32 1279.77 497.83 1279.59 504.25Z" fill="#06B6D4"/>
<path d="M327.14 630.69C327.2 647.86 314.37 664.73 297.77 669.1C295.55 669.68 293.09 669.81 290.8 669.56C288.02 669.26 286.22 667.07 285.95 664.42C285.67 661.69 286.8 659.57 289.2 658.35C290.63 657.62 292.25 657.19 293.83 656.82C312 652.6 322.67 629.32 307.67 612.66C305.44 610.18 305.17 607.73 306.8 605.83C308.4 603.96 310.85 603.83 313.75 605.46C322.22 610.24 327.1 619.44 327.14 630.69Z" fill="#06B6D4"/>
<path d="M1106.52 427.75C1107.04 418.91 1109.49 410.37 1114.99 402.92C1116.36 401.06 1118.2 399.47 1120.06 398.07C1123.29 395.64 1126.59 397.28 1129.54 398.7C1132.04 399.9 1131.85 402.71 1131.54 405.03C1130.4 413.48 1129.07 421.9 1127.86 430.34C1127.55 432.49 1127.32 434.66 1127.2 436.83C1127.06 439.46 1128.08 441.48 1130.47 442.83C1132.16 443.78 1131.47 445.23 1130.67 446.34C1129.02 448.65 1126.54 449.16 1123.89 448.99C1114.12 448.38 1107.82 442.18 1106.76 432.17C1106.63 430.81 1106.61 429.44 1106.52 427.75Z" fill="#06B6D4"/>
<path d="M434.76 879.64C426.68 879.64 418.59 879.72 410.51 879.59C408.2 879.55 405.79 879.17 403.62 878.42C401.11 877.55 399.77 875.38 399.78 872.68C399.8 870.09 401.11 868.03 403.47 867.11C405.46 866.33 407.67 865.78 409.79 865.76C424.77 865.63 439.76 865.6 454.74 865.7C458.17 865.72 461.61 866.3 465.01 866.84C466.5 867.08 468.24 867.51 469.24 868.5C470.48 869.71 471.83 871.65 471.72 873.16C471.61 874.67 470.02 876.7 468.57 877.34C466.23 878.37 463.48 878.8 460.9 878.86C452.19 879.03 443.47 878.93 434.76 878.93C434.76 879.16 434.76 879.4 434.76 879.64Z" fill="#06B6D4"/>
<path d="M1241.84 479.08C1236.77 478.26 1232.81 477.78 1228.93 476.95C1225.65 476.25 1222.91 474.47 1220.94 471.67C1218.03 467.51 1218.2 462.68 1222 459.36C1233.38 449.43 1252.38 448.01 1262.51 464.21C1264.96 468.13 1263.23 473.23 1258.2 474.98C1252.62 476.91 1246.7 477.9 1241.84 479.08Z" fill="#06B6D4"/>
<path d="M1102.5 789.53C1103.1 786.43 1103.38 783.89 1104.1 781.48C1105.23 777.72 1107.57 774.69 1111.55 773.93C1113.35 773.59 1115.73 774.19 1117.29 775.21C1119.19 776.45 1119.14 778.84 1118.25 780.92C1115.62 787.09 1112.93 793.24 1110.27 799.39C1109.42 801.35 1107.95 800.74 1107.02 799.78C1105.54 798.25 1104.41 796.39 1103.05 794.56C1094.59 796.12 1088.48 791.77 1084 780.29C1080.8 772.07 1084.21 761.15 1090.98 755.89C1095.35 752.49 1101.31 752.53 1105.6 755.99C1108.78 758.55 1109.49 762.25 1107.39 765.39C1106.31 767.01 1105.18 767.79 1103.56 765.87C1102.45 764.56 1101.28 764.59 1100.26 766.15C1096.2 772.39 1096.29 781.15 1100.54 787.27C1101.04 787.97 1101.67 788.57 1102.5 789.53Z" fill="#06B6D4"/>
<path d="M1096.1 672.75C1095.37 680.52 1094.63 688.28 1093.9 696.05C1093.83 696.77 1093.59 697.6 1093.86 698.2C1095.27 701.4 1093.64 703.37 1091.3 705.13C1087.89 707.69 1084.66 710.55 1081.02 712.74C1078.46 714.29 1075.43 715.21 1072.49 715.91C1069.95 716.52 1069.17 714.48 1069.16 712.4C1069.13 707.26 1069.2 702.11 1069.34 696.97C1069.48 691.89 1069.82 686.81 1069.94 681.73C1070.01 678.8 1070.97 676.19 1073.31 674.61C1078.4 671.18 1083.66 668 1088.97 664.91C1090.03 664.29 1091.62 664.28 1092.93 664.42C1095.15 664.66 1096.25 666.09 1096.11 668.38C1096.02 669.83 1095.95 671.27 1095.88 672.72C1095.95 672.74 1096.03 672.74 1096.1 672.75ZM1076.88 702.74C1079.56 701.18 1081.9 699.27 1084.58 698.4C1088.02 697.28 1088.36 695.27 1088.18 692.16C1087.89 686.96 1088.1 681.73 1088.1 675.87C1085.11 677.79 1082.83 679.22 1080.59 680.72C1080.19 680.99 1079.8 681.55 1079.73 682.02C1078.77 688.84 1077.85 695.66 1076.88 702.74Z" fill="#06B6D4"/>
<path d="M511.96 874.66C510 876.49 508.25 878.3 506.33 879.9C504.31 881.57 501.95 882.08 499.44 881C497.24 880.06 495.72 878.28 495.87 875.98C496 874.04 496.78 871.91 497.9 870.3C501.14 865.61 504.78 861.19 508.09 856.55C510.73 852.84 513.82 850.12 518.69 850.8C523.51 851.47 526.15 854.76 527.47 859.1C528.28 861.76 528.86 864.58 528.98 867.36C529.19 872.34 529.08 877.35 528.92 882.34C528.79 886.62 526.67 889.31 523.26 889.97C519.88 890.63 516.2 888.8 514.74 885.08C513.49 881.9 512.94 878.45 511.96 874.66Z" fill="#06B6D4"/>
<path d="M531.74 827.99C529.79 830.58 528.3 832.62 526.74 834.59C525.96 835.58 525.13 836.59 524.13 837.32C522.44 838.55 520.51 838.63 518.79 837.39C517.09 836.16 516.32 834.27 517.13 832.33C520.14 825.15 522.99 817.86 526.54 810.95C529.53 805.11 537 804.46 541.1 809.63C543.4 812.52 545.09 816.16 546.12 819.73C547.84 825.73 548.92 831.92 550.06 838.07C550.9 842.59 548.67 846.28 544.86 847.3C541.06 848.31 537.18 846.29 535.62 842.03C534.41 838.72 533.69 835.23 532.76 831.82C532.48 830.8 532.21 829.77 531.74 827.99Z" fill="#06B6D4"/>
<path d="M226.51 653.83C226.42 659.37 225.41 663.37 222.84 666.86C218.18 673.19 210.18 674.4 203.82 669.78C196.76 664.65 194.34 653.96 198.48 646.28C199 645.32 199.51 644.37 200 643.39C203.68 636 212.16 633.83 218.86 638.7C224.4 642.71 226.25 648.55 226.51 653.83ZM212.56 660.02C215.04 656.58 214.6 650.93 212.02 648.59C210.63 647.34 209.5 647.84 209.33 649.46C208.92 653.26 209.92 656.72 212.56 660.02Z" fill="#06B6D4"/>
<path d="M471.2 642.67C465.21 642.67 459.21 642.72 453.22 642.64C451.52 642.62 449.75 642.43 448.14 641.92C446.09 641.27 444.86 639.67 444.75 637.43C444.63 635.08 445.67 633.24 447.81 632.45C449.74 631.74 451.84 631.37 453.9 631.21C465.49 630.3 477.1 629.56 488.68 628.59C489.88 628.49 491.23 627.44 492.08 626.46C494.09 624.13 495.79 621.54 497.7 619.12C499.04 617.42 500.83 616.42 502.95 617.44C504.92 618.39 504.93 620.28 504.5 622.18C503.05 628.58 499.98 634.27 496.01 639.34C494.84 640.83 492.08 641.62 490 641.72C483.75 642.02 477.47 641.83 471.2 641.83C471.2 642.11 471.2 642.39 471.2 642.67Z" fill="#06B6D4"/>
<path d="M798.54 521.98C781.85 521.32 771.79 511.91 769.05 496.17C768.47 492.82 769.17 489.63 771.63 487.08C773.49 485.15 775.83 484.4 778.35 485.33C780.72 486.21 782.2 487.81 782.75 490.64C783.23 493.12 784.97 495.34 786.04 497.72C790.98 508.68 799.98 512.88 811.42 513.04C812.15 513.05 812.9 512.95 813.59 513.1C814.3 513.26 814.96 513.67 815.64 513.97C815.28 514.64 815.07 515.5 814.53 515.95C809.75 519.94 804.15 521.75 798.54 521.98Z" fill="#06B6D4"/>
<path d="M920.5 839.98C920.58 847.81 916.85 852.83 911.24 856.36C905.71 859.84 898.96 857.68 895.53 851.91C891.34 844.86 892.74 834.71 898.72 829.12C902.2 825.86 906.28 824.24 910.95 825.85C915.69 827.48 919.01 830.68 919.95 835.85C920.24 837.46 920.39 839.08 920.5 839.98Z" fill="#06B6D4"/>
<path d="M231.19 579.95C226.77 579.73 222.81 578.95 220.77 574.62C219.46 571.85 220.17 571.44 223.04 570.62C232.8 567.83 242.13 564.08 248.69 555.75C249.59 554.6 249.98 552.98 250.38 551.52C251.52 547.42 254.39 545.18 258.01 545.71C261.62 546.24 263.94 549.53 263.69 553.76C263.3 560.47 260.4 565.95 255.41 570.33C248.43 576.44 240.08 579.1 231.19 579.95Z" fill="#06B6D4"/>
<path d="M96.01 450.92C95.14 454.11 94.48 457.28 93.4 460.3C91.09 466.75 88.58 473.13 86.05 479.49C85.82 480.07 84.71 480.83 84.25 480.69C82.24 480.1 79.88 479.68 78.44 478.34C74.94 475.08 71.92 471.31 68.64 467.82C64.17 463.07 64.43 458.13 70.13 455.04C76.47 451.6 83.19 448.82 89.88 446.06C92.94 444.8 95.97 447.49 96.01 450.92Z" fill="#06B6D4"/>
<path d="M655.77 376.43C651.49 376.39 647.83 375.06 645.8 371.03C643.66 366.77 644.76 362.76 647.18 358.93C647.99 357.66 648.61 356.27 649.31 354.93C649.39 354.77 649.43 354.59 649.5 354.42C652.88 346.84 667.1 343.98 673.05 349.7C676.34 352.86 676.93 356.8 675.88 361.02C673.86 369.12 664.11 376.53 655.77 376.43ZM654.55 367.97C659.35 368.05 664.79 363.93 666.22 359.73C667.08 357.21 666.21 356.06 663.65 356.94C660.36 358.08 657.07 359.52 654.21 361.46C653.11 362.2 652.98 364.68 652.88 366.4C652.85 367.02 654.24 367.7 654.55 367.97Z" fill="#06B6D4"/>
<path d="M527.55 530.21C532.79 530.28 536.91 532.15 538.99 537.32C540.14 540.16 540.26 542.36 537.8 545.11C533.67 549.73 528.97 553.4 523.79 556.61C518.42 559.94 511.55 556.97 510.15 550.77C507.82 540.44 516.53 530.14 527.55 530.21Z" fill="#06B6D4"/>
<path d="M408.69 405.4C409.37 402.69 409.77 399.86 410.79 397.28C413.4 390.72 419.58 387.78 426.02 389.76C432.77 391.83 436.55 397.89 435.17 404.73C434.01 410.48 430.65 414.58 425.18 416.78C416.81 420.14 408.87 414.55 408.69 405.4Z" fill="#06B6D4"/>
<path d="M1108.64 368.66C1109.84 367.26 1110.99 365.81 1112.24 364.46C1114.2 362.33 1115.98 359.94 1118.27 358.25C1121.82 355.64 1126.65 356.98 1127.44 361.2C1128.79 368.32 1133.45 371.54 1139.49 373.8C1139.71 373.88 1139.85 374.18 1140.02 374.37C1136.5 379.33 1127.15 377.92 1120.28 371.26C1119.63 371.95 1119.02 372.7 1118.3 373.32C1116.37 374.96 1114.57 376.84 1112.41 378.09C1107.45 380.94 1102.38 379.21 1100.48 373.81C1099.45 370.89 1099.2 367.62 1099.05 364.48C1098.92 361.78 1099.38 359.05 1099.65 356.34C1099.86 354.26 1100.8 352.59 1103.1 352.45C1105.36 352.31 1106.71 353.78 1107.12 355.8C1107.57 358 1107.66 360.29 1107.78 362.55C1107.88 364.49 1107.8 366.45 1107.8 368.4C1108.09 368.48 1108.37 368.57 1108.64 368.66Z" fill="#06B6D4"/>
<path d="M998.7 697.74C997.59 708.76 995.4 719.5 992.22 730.02C991.5 732.39 990.19 734.73 988.6 736.63C987.69 737.72 985.47 738.62 984.23 738.27C982.99 737.91 981.62 735.98 981.38 734.56C980.98 732.21 981.18 729.66 981.59 727.28C983.43 716.65 985.42 706.05 987.4 695.44C987.63 694.2 987.94 692.95 988.43 691.79C989.32 689.69 990.94 688.46 993.3 688.55C995.65 688.64 997.29 689.94 997.88 692.15C998.39 693.95 998.45 695.87 998.7 697.74Z" fill="#06B6D4"/>
<path d="M1260.76 856.1C1260.76 856.28 1260.81 856.48 1260.75 856.64C1258.61 863.41 1256.13 870.04 1251.16 875.32C1249.23 877.36 1245.83 876.31 1245.23 873.52C1244.57 870.43 1244.2 867.25 1243.95 864.09C1243.41 857.49 1243 850.88 1242.6 844.27C1242.45 841.75 1243.14 839.54 1245.66 838.41C1248.14 837.3 1250.35 838.12 1252.19 839.8C1256.99 844.18 1259.53 849.81 1260.76 856.1Z" fill="#06B6D4"/>
<path d="M292.17 758.88C293.67 759.08 295.4 758.9 296.66 759.58C297.93 760.27 299.35 761.72 299.55 763.02C299.73 764.17 298.62 766.08 297.53 766.72C295.8 767.74 293.65 768.2 291.61 768.5C280.2 770.17 268.78 771.74 257.36 773.3C255.93 773.49 254.44 773.66 253.03 773.45C250.46 773.07 248.72 771.59 248.35 768.87C248.02 766.38 249.49 764.14 252.07 763.21C252.92 762.91 253.82 762.67 254.71 762.58C267.17 761.33 279.64 760.11 292.17 758.88Z" fill="#06B6D4"/>
<path d="M114.85 710.92C110.76 710.35 107.03 710.08 103.43 709.25C98.79 708.18 94.85 705.79 92.41 701.48C90.37 697.88 90.77 694.05 93.31 691.72C95.7 689.53 99.15 689.36 102.57 691.83C109.41 696.78 117.27 699.22 125.23 701.42C126.75 701.84 128.44 701.65 130.05 701.79C130.72 701.85 131.38 702.02 132.05 702.13C131.87 702.86 131.86 703.7 131.48 704.31C129.56 707.45 126.55 709.12 123.1 709.87C120.29 710.48 117.38 710.61 114.85 710.92Z" fill="#06B6D4"/>
<path d="M964.43 370.18C964.47 363.3 965.92 361.33 970.97 360.28C977.36 358.95 983.59 360.01 989.62 362.27C991.8 363.09 993.53 364.91 993.12 367.22C992.82 368.93 991.46 370.75 990.06 371.9C986.71 374.64 983.06 377 979.53 379.52C978.43 380.31 977.41 381.24 976.24 381.92C972.48 384.08 968.32 382.97 966.73 378.95C965.43 375.64 964.89 372.01 964.43 370.18Z" fill="#06B6D4"/>
<path d="M669.67 480.6C669.38 483.48 667.93 485.3 665.62 485.37C663.41 485.44 661.73 483.83 661.46 481.2C659.98 466.32 658.51 451.43 657.1 436.54C656.97 435.21 656.83 433.61 657.43 432.56C658.15 431.31 659.6 429.86 660.87 429.73C662.13 429.6 663.69 430.82 664.86 431.77C665.44 432.24 665.63 433.4 665.71 434.27C667.06 449.72 668.36 465.16 669.67 480.6Z" fill="#06B6D4"/>
<path d="M387.53 567.44C390.56 567.53 392.43 568.67 393.36 571.01C394.33 573.46 393.82 575.77 391.76 577.41C390.07 578.75 388.18 579.91 386.23 580.85C378.88 584.4 371.47 587.85 364.07 591.29C362.27 592.13 360.39 593.24 358.5 593.35C356.96 593.44 354.92 592.6 353.88 591.46C352.47 589.92 353.08 587.87 354.49 586.28C354.85 585.88 355.26 585.48 355.72 585.21C365.44 579.55 375.16 573.89 384.91 568.29C385.82 567.77 386.95 567.62 387.53 567.44Z" fill="#06B6D4"/>
<path d="M439.32 496.68C439.32 492.51 439.26 488.34 439.35 484.18C439.38 482.85 439.6 481.44 440.08 480.21C440.9 478.09 442.58 476.91 444.92 476.91C447.25 476.91 448.97 478.03 449.77 480.18C450.26 481.51 450.5 482.99 450.55 484.42C450.83 492.39 451.04 500.37 451.24 508.34C451.26 509.33 451.17 510.34 450.98 511.31C450.36 514.47 447.94 516.53 444.94 516.54C441.84 516.55 439.08 514.38 438.88 511.07C438.6 506.29 438.81 501.48 438.81 496.68C438.98 496.68 439.15 496.68 439.32 496.68Z" fill="#06B6D4"/>
<path d="M1250.26 609.94C1249.25 612.29 1248.24 614.65 1247.23 617C1245.23 615.93 1243.14 614.99 1241.25 613.75C1240.06 612.97 1239.28 611.55 1238.08 610.78C1235.84 609.35 1233.56 607.71 1231.06 607.01C1225.96 605.57 1223.38 602.93 1223.88 598.67C1224.37 594.5 1228.27 591.53 1233.16 591.61C1241.99 591.76 1249.71 600.2 1250.26 609.94Z" fill="#06B6D4"/>
<path d="M56.43 542.79C55.96 544.28 55.74 547.27 54.76 547.54C52.96 548.04 50.28 547.55 48.74 546.42C42.47 541.81 37.84 535.77 35.54 528.26C34.38 524.49 35.87 521.16 38.8 519.53C41.71 517.91 45.26 518.51 48.06 521.13C48.72 521.75 49.36 522.42 49.84 523.18C53.54 529.06 55.02 535.67 56.43 542.79Z" fill="#06B6D4"/>
<path d="M340.53 742.5C340.39 744.13 340.61 745.9 340.02 747.34C339.44 748.76 338.2 750.53 336.94 750.84C335.92 751.08 334.27 749.53 333.22 748.45C332.45 747.66 332.17 746.37 331.72 745.28C329.39 739.58 327.06 733.87 324.77 728.15C324.3 726.98 323.84 725.77 323.62 724.53C323.03 721.18 324.88 717.98 327.91 716.88C331.03 715.75 334.34 716.95 336.14 719.91C336.56 720.6 336.96 721.36 337.12 722.14C338.47 728.88 339.77 735.63 341.08 742.38C340.88 742.42 340.71 742.46 340.53 742.5Z" fill="#06B6D4"/>
<path d="M335.06 616.09C335.13 609.75 331.12 604.2 325.48 602.07C324.8 601.81 324.09 601.65 323.42 601.38C321.56 600.62 320.45 599.27 320.57 597.2C320.7 595.04 321.95 593.52 324.02 593.21C325.76 592.95 327.73 592.89 329.35 593.46C338.61 596.7 344.15 603.34 346 612.9C346.38 614.84 345.93 617.07 345.36 619.03C344.58 621.72 342.11 623.27 339.84 623.03C337.35 622.77 335.54 620.75 335.16 617.78C335.06 616.96 335.06 616.14 335.06 616.09Z" fill="#06B6D4"/>
<path d="M796.49 843.29C795.83 845.64 795.56 847.57 794.74 849.23C793.83 851.09 792.14 851.93 789.94 851.23C786.15 850.03 782.34 848.88 778.54 847.7C777.76 847.46 776.97 847.23 776.22 846.91C772.05 845.12 771.06 841.98 774.35 838.86C777.87 835.52 781.93 832.66 786.03 830.03C788.67 828.34 791.93 829.58 793.06 832.49C794.48 836.08 795.43 839.86 796.49 843.29Z" fill="#06B6D4"/>
<path d="M982.23 429.47C980.59 428.2 978.79 427.3 977.71 425.85C976.41 424.11 976.95 422.04 978.26 420.29C978.53 419.93 978.83 419.56 979.2 419.31C987 414.02 994.77 408.7 1002.64 403.52C1004.53 402.28 1006.91 401.8 1008.57 403.89C1010.35 406.12 1009.08 408.24 1007.43 409.93C1005.41 412 1003.27 413.98 1001.04 415.82C996.64 419.45 992.18 423.03 987.64 426.49C986.18 427.61 984.39 428.3 982.23 429.47Z" fill="#06B6D4"/>
<path d="M1071.94 397.94C1065.4 397.88 1062.16 394.64 1062.2 388.2C1062.23 382.81 1066.18 378.74 1071.39 378.72C1077.65 378.7 1082.99 383 1082.88 387.97C1082.71 395.06 1079.48 398 1071.94 397.94Z" fill="#06B6D4"/>
<path d="M196.08 725.72C190.93 725.79 186.69 721.83 186.35 717.08C186.01 712.46 193.12 705.63 196.8 705.67C201.75 705.73 206.42 709.94 206.51 714.84C206.63 720.89 202.07 725.64 196.08 725.72Z" fill="#06B6D4"/>
<path d="M137.49 693.46C129.9 693.22 121.24 684.72 120.93 677.38C120.79 674.21 122.24 671.8 124.82 670.91C127.48 669.99 130.52 670.95 131.98 673.83C134.87 679.55 137.57 685.37 140.04 691.28C141.12 693.89 138.69 693.31 137.49 693.46Z" fill="#06B6D4"/>
<path d="M775.57 382.05C776.23 380.28 776.78 377.53 778.17 375.31C780.48 371.61 784.48 371.78 787.6 374.83C794.01 381.1 790.77 386.54 785.9 391.65C784.21 393.42 781.83 393.48 779.99 391.79C777.46 389.46 776.06 386.43 775.57 382.05Z" fill="#06B6D4"/>
<path d="M1052.57 480.59C1053.98 482.02 1055.24 482.99 1056.1 484.22C1058.14 487.14 1059.94 490.24 1061.96 493.18C1063.42 495.3 1062.84 497.28 1060.27 497.49C1055.55 497.87 1050.95 498.43 1046.69 500.78C1045.96 501.18 1044.06 500.73 1043.6 500.06C1042.96 499.12 1042.67 497.4 1043.09 496.36C1044.59 492.69 1046.47 489.17 1048.19 485.59C1048.54 484.86 1048.71 483.99 1049.23 483.42C1050.08 482.5 1051.14 481.77 1052.57 480.59Z" fill="#06B6D4"/>
<path d="M548.48 535.8C547.24 534.79 545.59 534.09 545.13 532.92C544.67 531.73 545.22 530.03 545.64 528.65C545.85 527.98 546.72 527.45 547.4 527.01C551.68 524.26 555.95 521.5 560.31 518.88C561.52 518.16 562.99 517.66 564.39 517.52C567.64 517.2 569.65 520.05 568.51 523.11C568.42 523.36 568.31 523.64 568.14 523.83C562.9 529.72 555.89 532.6 548.48 535.8Z" fill="#06B6D4"/>
<path d="M785.78 866.98C783.44 872.4 781.38 877.58 778.96 882.59C777.99 884.59 775.9 885.5 773.62 884.6C771.32 883.7 770.61 881.64 771.14 879.45C772.21 874.99 773.47 870.56 774.85 866.19C775.24 864.97 776.13 863.47 777.19 863C778.76 862.31 780.98 861.76 782.38 862.38C783.78 863 784.5 865.14 785.78 866.98Z" fill="#06B6D4"/>
<path d="M72.49 508.83C65.76 507.71 60.72 505.16 57.11 500.45C56.24 499.32 56.28 496.96 56.78 495.45C57.43 493.47 59.57 492.79 61.55 493.22C66.87 494.38 71.74 496.66 75.33 500.82C76.44 502.11 77.21 504.75 76.63 506.17C76.06 507.56 73.6 508.18 72.49 508.83Z" fill="#06B6D4"/>
<path d="M684.42 471.9C684.2 474.97 684.07 478.05 683.72 481.1C683.45 483.42 682.42 485.31 679.7 485.41C677.42 485.49 675.66 483.83 675.48 481C675.3 478.12 675.5 475.21 675.61 472.32C675.72 469.16 675.97 466 676.04 462.83C676.09 460.63 677.01 459.11 679.17 458.68C681.37 458.24 683.14 459.41 683.55 461.41C684.24 464.83 684.39 468.36 684.76 471.84C684.64 471.86 684.53 471.88 684.42 471.9Z" fill="#06B6D4"/>
<path d="M1277.58 834.05C1277.09 838.05 1276.82 842.1 1275.98 846.03C1275.66 847.54 1274.29 849.34 1272.91 850C1270.95 850.95 1269.92 848.9 1269.07 847.43C1267.53 844.77 1265.91 842.14 1264.68 839.34C1263.4 836.42 1264.05 834.54 1266.7 832.78C1268.58 831.54 1270.59 830.46 1272.63 829.51C1275.24 828.32 1277.02 830.21 1277.58 834.05Z" fill="#06B6D4"/>
<path d="M1149.75 852.96C1153.11 852.99 1155.5 853.89 1156.81 856.57C1158.07 859.15 1157.44 861.51 1155.68 863.65C1155.28 864.14 1154.9 864.65 1154.5 865.14C1152.07 868.09 1148.96 869.07 1145.83 867.88C1142.82 866.73 1140.96 863.71 1141.16 860.31C1141.36 856.84 1143.49 854.3 1147.06 853.37C1148.1 853.1 1149.2 853.04 1149.75 852.96Z" fill="#06B6D4"/>
<path d="M968.76 466.13C964.56 466.09 960.98 462.77 961.38 458.71C961.93 453.13 963.7 450.12 967.83 450.2C972.81 450.29 976.88 453.84 976.86 458.18C976.84 462.41 973 466.18 968.76 466.13Z" fill="#06B6D4"/>
<path d="M36.21 389.15C36.12 384.41 39.21 380.2 42.78 380.2C46.07 380.2 48.82 383.23 48.9 386.95C49 391.2 45.8 394.97 42.06 395C38.76 395.03 36.27 392.54 36.21 389.15Z" fill="#06B6D4"/>
<path d="M227.5 616.78C227.43 621.07 225.17 623.64 221.52 623.6C217.81 623.56 214.2 619.88 214.26 616.21C214.31 613.25 218.06 609.99 221.39 610C225.05 610.02 227.57 612.82 227.5 616.78Z" fill="#06B6D4"/>
<path d="M1261.73 602.87C1260.51 605.32 1259.41 607.84 1258.03 610.19C1257.23 611.55 1255.76 611.74 1255.1 610.09C1253.68 606.51 1252.21 602.89 1251.4 599.15C1250.81 596.44 1252.73 594.27 1255.01 593.88C1257.14 593.52 1259.2 594.87 1260.09 597.49C1260.64 599.1 1260.88 600.82 1261.25 602.49C1261.42 602.62 1261.58 602.74 1261.73 602.87Z" fill="#06B6D4"/>
<path d="M941.02 854.33C940.95 857.81 938.29 860.47 934.99 860.38C931.77 860.29 929.35 857.61 929.44 854.21C929.53 850.69 932.14 848.07 935.46 848.17C938.69 848.26 941.09 850.92 941.02 854.33Z" fill="#06B6D4"/>
<path d="M170.03 768.27C166.7 768.27 164.36 765.96 164.35 762.68C164.34 759.44 166.79 756.9 169.93 756.92C173.18 756.94 176.08 759.81 176.05 762.97C176.02 766.04 173.49 768.27 170.03 768.27Z" fill="#06B6D4"/>
<path d="M891.83 631.49C894.95 631.57 897.35 634.21 897.21 637.44C897.08 640.66 894.54 643.17 891.46 643.12C888.35 643.07 885.98 640.44 886.09 637.16C886.22 633.92 888.75 631.41 891.83 631.49Z" fill="#06B6D4"/>
<path d="M435.08 591.11C435.1 587.96 437.31 585.59 440.22 585.6C443.31 585.61 445.94 588.1 445.91 590.99C445.88 593.99 443.33 596.5 440.33 596.48C437.29 596.46 435.07 594.19 435.08 591.11Z" fill="#06B6D4"/>
<path d="M581.39 507.05C585.07 507.01 587.52 508.7 587.59 511.35C587.67 514.03 584.45 516.92 581.3 516.99C578.29 517.06 575.92 514.95 575.84 512.13C575.76 509.29 578.17 507.09 581.39 507.05Z" fill="#06B6D4"/>
<path d="M494.57 840.47C494.58 843.52 491.89 846.24 488.9 846.22C486.39 846.21 484.67 844.59 484.71 842.26C484.75 839.19 487.43 836.3 490.25 836.27C492.75 836.25 494.56 838 494.57 840.47Z" fill="#06B6D4"/>
<path d="M1266.05 443.42C1266 446.22 1264.18 448.13 1261.61 448.07C1258.72 448.01 1256.32 445.62 1256.39 442.87C1256.45 440.28 1258.55 438.28 1261.17 438.31C1263.97 438.36 1266.1 440.59 1266.05 443.42Z" fill="#06B6D4"/>
<path d="M561.65 759.87C559.12 759.8 556.6 757.79 556.59 755.83C556.58 753.03 558.73 750.77 561.3 750.87C564 750.97 566.04 753.01 565.99 755.54C565.95 757.98 563.98 759.94 561.65 759.87Z" fill="#06B6D4"/>
<path d="M1276.68 819.36C1276.64 822.05 1274.55 824.27 1272.14 824.17C1269.88 824.08 1268.13 822.21 1268.11 819.85C1268.09 817.21 1270.16 815.04 1272.66 815.08C1274.95 815.12 1276.71 817 1276.68 819.36Z" fill="#06B6D4"/>
<path d="M149.52 677.71C151.79 677.78 153.39 679.5 153.18 681.5C152.96 683.61 151.69 684.75 149.57 684.76C147.55 684.77 145.96 683.02 146.17 681.01C146.4 678.89 147.71 677.86 149.52 677.71Z" fill="#06B6D4"/>
<path d="M971.88 547.7C972.99 547.86 974.63 547.99 976.2 548.36C978.54 548.92 980.41 550.16 980.91 552.72C981.43 555.4 980.13 557.4 977.99 558.68C975.99 559.88 973.82 561.07 971.58 561.53C967.06 562.47 962.46 563.08 957.86 563.52C938.7 565.36 919.52 567.09 900.35 568.84C899.18 568.95 897.99 569.01 896.82 568.91C894.54 568.72 892.85 567.54 892.16 565.32C891.44 562.99 892.14 560.83 894.12 559.54C895.83 558.43 897.84 557.47 899.83 557.18C916.99 554.71 934.16 552.36 951.34 550.06C958 549.19 964.68 548.52 971.88 547.7Z" fill="#06B6D4"/>
<path d="M993.4 564.14C994.12 558.57 994.77 552.99 995.6 547.44C995.84 545.86 996.4 544.25 997.15 542.83C998.41 540.45 1000.53 539.31 1003.26 539.71C1005.86 540.09 1007.75 541.69 1008.09 544.2C1008.41 546.55 1008.51 549.23 1007.67 551.37C1005.71 556.41 1003.22 561.26 1000.79 566.11C999.84 568.01 998.76 570.18 996.08 569.93C994.43 569.79 993.5 567.37 993.4 564.14Z" fill="#06B6D4"/>
<path d="M1007.57 561.7C1009.04 557.18 1010.15 552.78 1011.91 548.65C1013.25 545.51 1016.48 544.47 1019.17 545.55C1021.85 546.62 1023.63 549.64 1022.4 552.76C1020.76 556.92 1018.47 560.88 1016.09 564.68C1014.99 566.43 1012.87 568.57 1010.73 567.3C1009.2 566.4 1008.68 563.79 1007.57 561.7Z" fill="#06B6D4"/>
<path d="M550.2 461.97C552.7 462.13 554.62 462.21 556.52 462.39C557.27 462.46 557.99 462.78 558.73 462.99C558.39 463.76 558.27 464.86 557.68 465.24C554.81 467.07 552.01 469.32 548.83 470.28C542.46 472.21 537.03 467.33 537.95 460.73C539.14 452.15 544.23 446.25 551.77 442.4C552.71 441.92 554.55 441.99 555.26 442.62C556.1 443.35 556.66 445.06 556.45 446.18C556.05 448.28 555.03 450.27 554.22 452.28C553.04 455.2 551.8 458.12 550.2 461.97Z" fill="#06B6D4"/>
</g>
<defs>
<clipPath id="clip0">
<rect width="1286.91" height="894.08" fill="white"/>
</clipPath>
</defs>
</svg>
